<?xml version="1.0" encoding="UTF-8" standalone="no"?>
<svg width="322px" height="437px" viewBox="0 0 322 437" version="1.1" xmlns="http://www.w3.org/2000/svg" xmlns:xlink="http://www.w3.org/1999/xlink">
    <!-- Generator: Sketch 3.8.3 (29802) - http://www.bohemiancoding.com/sketch -->
    <title>users-3</title>
    <desc>Created with Sketch.</desc>
    <defs></defs>
    <g id="Page-1" stroke="none" stroke-width="1" fill="none" fill-rule="evenodd">
        <g id="users-3">
            <g id="svg4226">
                <path d="M321.426666,324.498413 C301.031616,413.706512 196.637573,378.769043 161,363.94754 L161,363.852722 C125.362427,378.685608 20.968384,413.649902 0.573334,324.373322 C0.573334,324.373322 37.15332,324.766663 26.17334,210.026672 C26.17334,210.026672 -13.456757,-17.273193 161,1.725372 L161,2.097839 C335.456757,-16.886169 295.82666,210.23941 295.82666,210.23941 C284.84668,324.891449 321.426666,324.498413 321.426666,324.498413 L321.426666,324.498413 Z" id="Shape-12" fill="#3B434F"></path>
                <path d="M16.359985,433 C16.359985,433 9.744995,343.01178 94.440002,334.613342 L132.41333,334.613342 L132.41333,317.119995 C132.41333,317.119995 159.125,328.593323 186.17334,318.399994 L187.026672,334.613342 L231.399994,334.613342 C231.399994,334.613342 307.385406,337.597595 303.933319,433.853333 L16.359985,433 L16.359985,433 Z" id="body-bg-flat-copy" fill="#FFFFFF"></path>
                <path d="M303.261932,436.58667 L18.745544,436.58667 L13.227661,436.58667 L14.605011,413.056854 C17.294312,367.114624 53.491882,332.053345 94.915009,332.053345 L123.398651,332.053345 C121.550812,333.581665 120.196655,335.166901 119.222778,336.746674 L97.429718,336.746674 C57.506348,336.746674 22.619324,370.495087 20.027374,414.71701 L19.070648,431.040009 L302.510162,431.040009 L301.980103,414.71701 C299.388153,370.495087 264.501129,336.746674 224.577728,336.746674 L202.766113,336.746674 C201.932007,335.178528 200.745941,333.593414 199.090027,332.053345 L226.839417,332.053345 C268.262543,332.053345 304.460114,367.114624 307.149414,413.056854 L308.526764,436.58667 L303.261932,436.58667 L303.261932,436.58667 Z M190.650421,336.746674 L189.160004,336.746674 L189.160004,332.053345 L190.81601,332.053345 C190.71701,333.273132 190.653381,334.810577 190.650421,336.746674 L190.650421,336.746674 Z M130.639282,332.053345 L132.41333,332.053345 L132.41333,336.746674 L130.880066,336.746674 C130.857147,334.75354 130.765808,333.22406 130.639282,332.053345 L130.639282,332.053345 Z" id="Rounded-Rectangle-13-copy-4" fill="#3B434F"></path>
                <path d="M174.226654,397.333344 C175.87616,397.333344 177.213348,398.670502 177.213348,400.320007 C177.213348,401.969482 175.87616,403.306671 174.226654,403.306671 C172.577179,403.306671 171.23999,401.969482 171.23999,400.320007 C171.23999,398.670502 172.577179,397.333344 174.226654,397.333344 L174.226654,397.333344 Z" id="Ellipse-5" fill="#3B434F"></path>
                <path d="M174.226654,416.959991 C175.87616,416.959991 177.213348,418.29718 177.213348,419.946655 C177.213348,421.596161 175.87616,422.933319 174.226654,422.933319 C172.577179,422.933319 171.23999,421.596161 171.23999,419.946655 C171.23999,418.29718 172.577179,416.959991 174.226654,416.959991 L174.226654,416.959991 Z" id="Ellipse-5-copy" fill="#3B434F"></path>
                <path d="M208.786652,357.226685 L187.026672,389.653351 C181.107239,371.306061 163.986664,378.133331 163.986664,378.133331 L163.986664,432.321503 C163.986664,433.734528 162.649475,434.880005 161,434.880005 C159.350525,434.880005 158.013336,433.734528 158.013336,432.321503 L158.013336,378.13205 C157.874817,378.077118 140.890472,371.38092 135.001587,389.653351 L113.265228,357.226685 C113.265228,357.226685 104.857147,335.849976 130.313354,326.506683 L130.313354,316.693329 L135.126953,316.693329 L135.126953,347.577057 C135.744934,352.893341 139.405304,368.04129 161,373.013336 C182.618164,368.04129 186.282532,352.893341 186.901184,347.577057 L186.901184,316.693329 L191.720001,316.693329 L191.720001,326.506683 C217.203857,335.849976 208.786652,357.226685 208.786652,357.226685 L208.786652,357.226685 Z M134.749268,360.097198 C133.58902,358.783264 131.917877,355.519989 131.917877,355.519989 C131.917877,355.519989 130.313354,350.180023 130.313354,347.839996 L130.313354,337.017731 C129.95047,332.13678 129.03476,332.053345 129.03476,332.053345 C110.040985,341.408569 118.379669,355.946655 118.379669,355.946655 L134.1492,380.693329 C140.307312,370.25885 146.935303,372.160004 146.935303,372.160004 C141.083344,369.177429 137.245422,364.548492 134.749268,360.097198 L134.749268,360.097198 Z M193,332.053345 C193,332.053345 192.083282,332.13678 191.720001,337.017731 L191.720001,347.839996 C191.720001,350.180023 190.113739,355.519989 190.113739,355.519989 C190.113739,355.519989 188.440765,358.783264 187.279266,360.097198 C184.780396,364.548492 180.938293,369.177429 175.079987,372.160004 C175.079987,372.160004 181.715179,370.25885 187.880005,380.693329 L203.666656,355.946655 C203.666656,355.946655 212.014404,341.408569 193,332.053345 L193,332.053345 Z" id="Shape-2-copy-9" fill="#3B434F"></path>
                <path d="M161.214661,47.466644 C214.292542,47.466644 256.186951,97.067871 254.824738,156.664948 L253.376923,220.006104 C252.093597,276.152466 210.845428,320.533325 161.214661,320.533325 C111.583893,320.533325 70.335724,276.152466 69.052399,220.006104 L67.604584,156.664948 C66.242401,97.067871 108.13678,47.466644 161.214661,47.466644 L161.214661,47.466644 Z" id="2-copy-5" fill="#FFFFFF"></path>
                <path d="M259.089386,154.701141 L257.572327,220.615509 C256.227631,279.042816 213.006287,325.226654 161.001404,325.226654 C108.99649,325.226654 65.775177,279.042816 64.43045,220.615509 L62.913361,154.701141 C61.486023,92.682922 105.384491,41.06665 161.001404,41.06665 C216.618317,41.06665 260.516754,92.682922 259.089386,154.701141 L259.089386,154.701141 Z M160.7883,47.893311 C108.436035,47.893311 67.11438,97.107025 68.457916,156.238495 L69.885956,219.084808 C71.151733,274.792511 111.836029,318.82666 160.7883,318.82666 C209.74057,318.82666 250.424835,274.792511 251.690613,219.084808 L253.118622,156.238495 C254.462219,97.107025 213.140564,47.893311 160.7883,47.893311 L160.7883,47.893311 Z" id="2-line" fill="#3B434F"></path>
                <path d="M207.079987,258.325928 C199.324768,265.059753 181.808014,271.466644 161.426697,271.466644 C141.045349,271.466644 123.528595,265.059753 115.773346,258.325928 C115.773346,258.325928 114.979889,256.142639 116.144043,254.978485 C117.329742,253.792786 119.186676,254.050842 119.186676,254.050842 C126.933777,260.789246 141.037567,266.34668 161.426697,266.34668 C181.815796,266.34668 195.919586,260.789246 203.666687,254.050842 C203.666687,254.050842 205.561707,253.346893 206.482269,254.267456 C208.25531,256.040497 207.079987,258.325928 207.079987,258.325928 L207.079987,258.325928 Z" id="usta" fill="#3B434F"></path>
                <path d="M147.34668,281.706665 L174.653351,281.706665 L174.653351,285.973328 L147.34668,285.973328 L147.34668,281.706665 L147.34668,281.706665 Z" id="-" fill="#3B434F"></path>
                <path d="M114.066681,169.066681 C118.77951,169.066681 122.600006,172.887177 122.600006,177.600006 C122.600006,182.312836 118.77951,186.133331 114.066681,186.133331 C109.353851,186.133331 105.533325,182.312836 105.533325,177.600006 C105.533325,172.887177 109.353851,169.066681 114.066681,169.066681 L114.066681,169.066681 Z" id="oko" fill="#3B434F"></path>
                <path d="M208.786652,169.066681 C213.499481,169.066681 217.319977,172.887177 217.319977,177.600006 C217.319977,182.312836 213.499481,186.133331 208.786652,186.133331 C204.073853,186.133331 200.253326,182.312836 200.253326,177.600006 C200.253326,172.887177 204.073853,169.066681 208.786652,169.066681 L208.786652,169.066681 Z" id="oko_1" fill="#3B434F"></path>
                <path d="M113.640015,200.640015 C121.887451,200.640015 128.573334,201.11322 128.573334,210.453339 C128.573334,220.08725 121.887451,220.266663 113.640015,220.266663 C105.392548,220.266663 98.706696,218.512146 98.706696,210.453339 C98.706696,201.039642 105.392548,200.640015 113.640015,200.640015 L113.640015,200.640015 Z" id="Ellipse-3-copy" fill="#F5F3EF"></path>
                <path d="M212.626678,200.640015 C220.874115,200.640015 227.559998,201.11322 227.559998,210.453339 C227.559998,220.08725 220.874115,220.266663 212.626678,220.266663 C204.379211,220.266663 197.693359,218.512146 197.693359,210.453339 C197.693359,201.039642 204.379211,200.640015 212.626678,200.640015 L212.626678,200.640015 Z" id="Ellipse-3-copy-2" fill="#F5F3EF"></path>
                <path d="M184,153.610168 L186.471436,156.749329 L188.004822,158.694916 C188.004822,158.694916 215.155151,143.702881 234,161 L236.009155,161.984924 C236.009155,161.984924 231.366699,136.9086 190.727692,151.576416 C188.583557,152.15802 186.346405,152.829254 184,153.610168 L184,153.610168 Z" id="R-copy" fill="#3B434F"></path>
                <path d="M137,153.627625 L134.528564,156.760254 L132.995178,158.701782 C132.995178,158.701782 105.844849,143.740936 87,161.002075 L84.990845,161.984955 C84.990845,161.984955 89.633301,136.960754 130.272308,151.598083 C132.416443,152.178497 134.653595,152.848328 137,153.627625 L137,153.627625 Z" id="L-copy" fill="#3B434F"></path>
                <path d="M252.306671,117.013336 L270.226654,117.013336 L270.226654,159.679993 L252.306671,159.679993 L252.306671,117.013336 L252.306671,117.013336 Z" id="Rectangle-19" fill="#3B434F"></path>
                <path d="M55.778351,155.743378 C55.778351,155.743378 74.625946,119.453461 110.69342,125.225952 C110.69342,125.225952 112.120056,133.492096 119.87558,142.377777 C119.87558,142.377777 128.366791,121.825775 154.549622,116.036041 C175.349762,111.436584 195.095551,94.855377 195.095551,94.855377 C195.095551,94.855377 198.167175,127.80658 238.696198,136.982422 C238.696198,136.982422 274.207123,141.373016 271.629883,121.751007 C269.052643,102.128998 249.346008,16.723602 154.979858,29.652496 C60.613739,42.58136 38.450958,76.850189 54.940125,154.883911" id="Shape-15" fill="#3B444F"></path>
                <path d="M61.80722,164.313141 C61.795441,164.313812 60.759613,163.486603 58.803619,162.870758 C57.826019,162.563507 56.611023,162.31076 55.226166,162.248444 C54.88031,162.23288 54.524353,162.229187 54.160126,162.239532 C53.795898,162.249878 53.42337,162.274231 53.044708,162.314667 C52.287476,162.395569 51.505402,162.540955 50.718414,162.767334 C47.567261,163.672913 44.352692,165.874664 42.464783,170.419098 C41.51709,172.691437 40.891907,175.549713 40.726624,179.125916 C40.685272,180.019989 40.672638,180.958923 40.690765,181.944794 C40.708923,182.930664 40.757874,183.96347 40.83963,185.045288 C41.003052,187.208832 41.298157,189.568451 41.737854,192.139679 C41.728241,192.137146 41.327759,199.909668 44.106445,208.84082 C46.718689,217.572784 52.991516,228.299225 64.573334,231.36441 C63.241302,209.185028 63.199921,186.589905 61.80722,164.313141 L61.80722,164.313141 L61.80722,164.313141 Z" id="Shape-11-copy" fill="#F7FBFB"></path>
                <path d="M64.127869,165.207275 C64.127869,165.207275 43.951477,158.955597 44.66153,179.69809 C44.66153,179.69809 47.665436,209.77536 48.969879,212.547363 C48.969879,212.547363 56.893707,230.059387 69.970856,230.83548 C82.751862,231.593994 69.970856,230.83548 69.970856,230.83548 L70.129578,236.480011 C70.129578,236.480011 47.144928,233.53302 42.705597,207.04541 L39.201721,182.982697 C39.201721,182.982697 36.48111,151.138062 62.871185,159.234802 C88.580475,167.122681 62.871185,159.234802 62.871185,159.234802 L64.127869,165.207275" id="Shape-3" fill="#3B434F"></path>
                <path d="M57.468323,206.994812 C57.468323,206.994812 56.339172,207.848145 55.369171,207.848145 C54.39917,207.848145 53.283783,206.994812 53.283783,206.994812 L51.201569,186.012024 C51.201569,186.012024 54.074493,175.678558 66.265381,181.139496 L66.553558,187.139221 C66.553558,187.139221 55.85791,183.346008 56.079071,188.069427 C56.291962,192.615967 57.468323,206.994812 57.468323,206.994812 L57.468323,206.994812 Z" id="Shape-4" fill="#3B434F"></path>
                <path d="M259.813416,164.362122 C259.825256,164.362793 260.865631,163.536163 262.83017,162.920715 C263.812073,162.613678 265.032379,162.361115 266.423309,162.298828 C266.77066,162.283295 267.128174,162.279602 267.494019,162.289948 C267.859833,162.300262 268.233978,162.324615 268.614319,162.365021 C269.374847,162.445862 270.16037,162.591156 270.950806,162.817383 C274.115753,163.722351 277.344391,165.922607 279.24057,170.463959 C280.192413,172.734741 280.820343,175.591064 280.986328,179.164856 C281.027863,180.058319 281.040558,180.996613 281.022369,181.981812 C281.00412,182.96701 280.954956,183.999115 280.872833,185.0802 C280.70871,187.242279 280.412292,189.600311 279.970673,192.169769 C279.980347,192.167236 280.382568,199.934509 277.591705,208.859589 C274.968048,217.585632 268.667725,228.304779 257.035187,231.367889 C258.373047,209.203552 258.414612,186.623779 259.813416,164.362122 L259.813416,164.362122 L259.813416,164.362122 Z" id="Shape-11-copy_1" fill="#F7FBFB"></path>
                <path d="M257.482605,165.255676 C257.482605,165.255676 277.747375,159.00824 277.03421,179.736633 C277.03421,179.736633 274.017151,209.793488 272.70697,212.563599 C272.70697,212.563599 264.748444,230.063751 251.614044,230.839325 C238.777039,231.597321 251.614044,230.839325 251.614044,230.839325 L251.45462,236.480011 C251.45462,236.480011 274.539917,233.535034 278.998688,207.065399 L282.517914,183.019012 C282.517914,183.019012 285.250458,151.195984 258.744781,159.287231 C232.922913,167.169769 258.744781,159.287231 258.744781,159.287231 L257.482605,165.255676" id="Shape-3_1" fill="#3B434F"></path>
                <path d="M264.171326,207.014832 C264.171326,207.014832 265.30542,207.867584 266.279663,207.867584 C267.253906,207.867584 268.374176,207.014832 268.374176,207.014832 L270.465515,186.046295 C270.465515,186.046295 267.580017,175.719849 255.335724,181.177063 L255.046295,187.172729 C255.046295,187.172729 265.788788,183.38208 265.56665,188.102295 C265.352844,192.645752 264.171326,207.014832 264.171326,207.014832 L264.171326,207.014832 Z" id="Shape-4_1" fill="#3B434F"></path>
                <path d="M168.893341,205.333344 L170.386658,205.333344 C173.474121,209.526306 174.730225,215.969757 176.359985,221.546661 C176.865051,223.274963 176.375061,226.297974 175.933319,227.519989 C174.315552,231.995514 169.235687,231.915192 165.053345,233.919983 C163.930115,234.458435 163.094604,235.387817 161.640015,235.626678 C160.691711,234.791351 159.546722,234.627289 159.079987,233.279999 C157.927673,231.693268 159.412811,230.702393 160.573334,230.079987 C162.679565,228.950409 169.181488,227.837097 169.959991,225.813324 C170.923218,224.71759 170.282745,221.423157 169.959991,220.266663 C169.133392,217.304504 168.736633,214.831543 167.613342,212.160004 C166.867188,210.385498 165.557159,208.514496 166.333344,206.399994 C166.976532,206.12381 168.366638,205.809784 168.893341,205.333344 L168.893341,205.333344 Z" id="new_vector_shape_done" fill="#3B434F"></path>
            </g>
        </g>
    </g>
</svg>