<?xml version="1.0" encoding="UTF-8" standalone="no"?>
<svg width="296px" height="428px" viewBox="0 0 296 428" version="1.1" xmlns="http://www.w3.org/2000/svg" xmlns:xlink="http://www.w3.org/1999/xlink">
    <!-- Generator: Sketch 3.8.3 (29802) - http://www.bohemiancoding.com/sketch -->
    <title>users-1</title>
    <desc>Created with Sketch.</desc>
    <defs></defs>
    <g id="Symbols" stroke="none" stroke-width="1" fill="none" fill-rule="evenodd">
        <g id="users-1">
            <g id="svg4823">
                <path d="M3,426 C3,426 -7.30188,335.688873 81.440002,325.613342 L119.41333,325.613342 L119.41333,308.119995 C119.41333,308.119995 146.125,319.593323 173.17334,309.399994 L174.026672,325.613342 L218.399994,325.613342 C218.399994,325.613342 295.673462,333.327606 291,426 L3,426 L3,426 Z" id="body-bg-flat" fill="#FFFFFF"></path>
                <path d="M290.261932,427.58667 L290.261932,427.58667 L5.745544,427.58667 L5.745544,427.58667 L0.227661,427.58667 L1.605011,404.056854 C4.294312,358.114624 40.491882,323.053345 81.915009,323.053345 L119.41333,323.053345 L119.41333,327.746674 L84.429718,327.746674 C44.506348,327.746674 9.619324,361.495087 7.027374,405.71701 L6.070648,422.040009 L289.510162,422.040009 L288.980103,405.71701 C286.388153,361.495087 251.501129,327.746674 211.577728,327.746674 L176.160004,327.746674 L176.160004,323.053345 L213.839417,323.053345 C255.262543,323.053345 291.460114,358.114624 294.149414,404.056854 L295.526764,427.58667 L290.261932,427.58667 L290.261932,427.58667 Z" id="Rounded-Rectangle-13-copy-3" fill="#3B434F"></path>
                <path d="M122.399994,306.146088 L122.399994,332.461182 C122.399994,346.116669 133.479462,357.186676 147.146667,357.186676 C160.813873,357.186676 171.893341,346.116669 171.893341,332.461182 L171.893341,306.688995 C173.329498,306.251862 174.752136,305.777069 176.160004,305.26413 L176.160004,332.640289 C176.160004,348.78891 163.074799,361.880005 146.93335,361.880005 C130.791901,361.880005 117.706665,348.78891 117.706665,332.640289 L117.706665,304.453674 C119.252502,305.064911 120.818207,305.627106 122.399994,306.146088 L122.399994,306.146088 Z" id="neck-copy-7" fill="#3B434F"></path>
                <path d="M223.71994,379.489349 L211.634583,404.696259 C211.023346,405.971161 209.494324,406.509155 208.219452,405.897919 C206.94455,405.286682 206.406555,403.75766 207.017792,402.482758 L218.689819,378.138 L209.569641,362.3414 C208.862732,361.116974 209.282227,359.5513 210.506653,358.844391 C211.73111,358.137451 213.296753,358.556976 214.003693,359.781403 L223.817017,376.778595 C224.322723,377.65448 224.24939,378.703491 223.71994,379.489349 L223.71994,379.489349 Z" id="Rounded-Rectangle-2" fill="#3B434F"></path>
                <path d="M70.362396,379.513947 L82.512604,404.798462 C83.127106,406.077301 84.664337,406.616943 85.946045,406.003815 C87.227783,405.390686 87.768677,403.856964 87.154144,402.578156 L75.419525,378.158447 L84.588623,362.313202 C85.299316,361.085022 84.877563,359.514526 83.646576,358.80542 C82.415558,358.096313 80.841522,358.51712 80.130798,359.745331 L70.264832,376.794861 C69.756409,377.673431 69.830109,378.725677 70.362396,379.513947 L70.362396,379.513947 Z" id="Rounded-Rectangle-2-copy-3" fill="#3B434F"></path>
                <path d="M117.706665,322.200012 L122.399994,322.200012 L122.399994,425.880005 L117.706665,425.880005 L117.706665,322.200012 L117.706665,322.200012 Z" id="Rectangle-24" fill="#3B434F"></path>
                <path d="M171.893341,323.053345 L176.58667,323.053345 L176.58667,426.733337 L171.893341,426.733337 L171.893341,323.053345 L171.893341,323.053345 Z" id="Rectangle-24-copy" fill="#3B434F"></path>
                <path d="M135,373 L147,360 L160,373 L153,380 L164,425 L130,425 L142,380 L135,373 L135,373 Z" id="Shape-34" fill="#3B434F"></path>
                <path d="M161.69928,425.689667 L149.605316,380.554413 L152.119995,379.799988 L153.787384,378.028412 L166.578613,425.7659 L161.69928,425.689667 L161.69928,425.689667 Z M127.584991,425.156647 L140.211121,378.24762 L141.026672,378.946655 L143.58667,380.65332 L144.430725,380.737732 L132.454407,425.232727 L127.584991,425.156647 L127.584991,425.156647 Z" id="Rectangle-24-copy-4" fill="#3B434F"></path>
                <path d="M176.145569,385.78775 L172.826874,389.106445 L159.913605,376.193176 C157.421692,380.151001 153.02243,382.786652 148,382.786652 C142.774628,382.786652 138.224152,379.93396 135.795074,375.706726 L122.315369,389.186462 L118.987762,385.858856 L145.526611,359.320007 L147.602203,357.395569 L149.677795,359.320007 L176.145569,385.78775 L176.145569,385.78775 Z M138.405548,373.096252 C140.107025,376.560669 143.666168,378.946655 147.786652,378.946655 C151.814484,378.946655 155.300873,376.663452 157.045563,373.325134 L147.611115,363.890686 L138.405548,373.096252 L138.405548,373.096252 Z" id="Ellipse-6" fill="#3B434F"></path>
                <path d="M241.824738,147.664948 L240.376923,211.006104 C239.093597,267.152466 197.845428,311.533325 148.214661,311.533325 C98.583893,311.533325 57.335724,267.152466 56.052399,211.006104 L54.604584,147.664948 C53.242401,88.067871 95.13678,38.466644 148.214661,38.466644 C201.292542,38.466644 243.186951,88.067871 241.824738,147.664948 Z" id="2-copy-5" fill="#FFFFFF"></path>
                <path d="M246.089386,145.701141 L244.572327,211.615509 C243.227631,270.042816 200.006287,316.226654 148.001404,316.226654 C95.99649,316.226654 52.775177,270.042816 51.43045,211.615509 L49.913361,145.701141 C48.486023,83.682922 92.384491,32.06665 148.001404,32.06665 C203.618317,32.06665 247.516754,83.682922 246.089386,145.701141 L246.089386,145.701141 Z M147.7883,38.893311 C95.436035,38.893311 54.11438,88.107025 55.457916,147.238495 L56.885956,210.084808 C58.151733,265.792511 98.836029,309.82666 147.7883,309.82666 C196.74057,309.82666 237.424835,265.792511 238.690613,210.084808 L240.118622,147.238495 C241.462219,88.107025 200.140564,38.893311 147.7883,38.893311 L147.7883,38.893311 Z" id="2-line" fill="#3B434F"></path>
                <path d="M194.079987,249.325928 C186.324768,256.059753 168.808014,262.466644 148.426697,262.466644 C128.045349,262.466644 110.528595,256.059753 102.773346,249.325928 C102.773346,249.325928 101.979889,247.142639 103.144043,245.978485 C104.329742,244.792786 106.186676,245.050842 106.186676,245.050842 C113.933777,251.789246 128.037567,257.34668 148.426697,257.34668 C168.815796,257.34668 182.919586,251.789246 190.666687,245.050842 C190.666687,245.050842 192.561707,244.346893 193.482269,245.267456 C195.25531,247.040497 194.079987,249.325928 194.079987,249.325928 L194.079987,249.325928 Z" id="usta" fill="#3B434F"></path>
                <path d="M134.34668,272.706665 L161.653351,272.706665 L161.653351,276.973328 L134.34668,276.973328 L134.34668,272.706665 L134.34668,272.706665 Z" id="-" fill="#3B434F"></path>
                <path d="M49.80722,155.313141 C49.795441,155.313812 48.759613,154.486603 46.803619,153.870758 C45.826019,153.563507 44.611023,153.31076 43.226166,153.248444 C42.88031,153.23288 42.524353,153.229187 42.160126,153.239532 C41.795898,153.249878 41.42337,153.274231 41.044708,153.314667 C40.287476,153.395569 39.505402,153.540955 38.718414,153.767334 C35.567261,154.672913 32.352692,156.874664 30.464783,161.419098 C29.51709,163.691437 28.891907,166.549713 28.726624,170.125916 C28.685272,171.019989 28.672638,171.958923 28.690765,172.944794 C28.708923,173.930664 28.757874,174.96347 28.83963,176.045288 C29.003052,178.208832 29.298157,180.568451 29.737854,183.139679 C29.728241,183.137146 29.327759,190.909668 32.106445,199.84082 C34.718689,208.572784 40.991516,219.299225 52.573334,222.36441 C51.241302,200.185028 51.199921,177.589905 49.80722,155.313141 L49.80722,155.313141 L49.80722,155.313141 Z" id="Shape-11-copy" fill="#FFFFFF"></path>
                <path d="M51.127869,156.207275 C51.127869,156.207275 30.951477,149.955597 31.66153,170.69809 C31.66153,170.69809 34.665436,200.77536 35.969879,203.547363 C35.969879,203.547363 43.893707,221.059387 56.970856,221.83548 C69.751862,222.593994 56.970856,221.83548 56.970856,221.83548 L57.129578,227.480011 C57.129578,227.480011 34.144928,224.53302 29.705597,198.04541 L26.201721,173.982697 C26.201721,173.982697 23.48111,142.138062 49.871185,150.234802 C75.580475,158.122681 49.871185,150.234802 49.871185,150.234802 L51.127869,156.207275" id="Shape-3" fill="#3B434F"></path>
                <path d="M44.468323,197.994812 C44.468323,197.994812 43.339172,198.848145 42.369171,198.848145 C41.39917,198.848145 40.283783,197.994812 40.283783,197.994812 L38.201569,177.012024 C38.201569,177.012024 41.074493,166.678558 53.265381,172.139496 L53.553558,178.139221 C53.553558,178.139221 42.85791,174.346008 43.079071,179.069427 C43.291962,183.615967 44.468323,197.994812 44.468323,197.994812 L44.468323,197.994812 Z" id="Shape-4" fill="#3B434F"></path>
                <path d="M245.813416,155.362122 C245.825256,155.362793 246.865631,154.536163 248.83017,153.920715 C249.812073,153.613678 251.032379,153.361115 252.423309,153.298828 C252.77066,153.283295 253.128174,153.279602 253.494019,153.289948 C253.859833,153.300262 254.233978,153.324615 254.614319,153.365021 C255.374847,153.445862 256.16037,153.591156 256.950806,153.817383 C260.115753,154.722351 263.344391,156.922607 265.24057,161.463959 C266.192413,163.734741 266.820343,166.591064 266.986328,170.164856 C267.027863,171.058319 267.040558,171.996613 267.022369,172.981812 C267.00412,173.96701 266.954956,174.999115 266.872833,176.0802 C266.70871,178.242279 266.412292,180.600311 265.970673,183.169769 C265.980347,183.167236 266.382568,190.934509 263.591705,199.859589 C260.968048,208.585632 254.667725,219.304779 243.035187,222.367889 C244.373047,200.203552 244.414612,177.623779 245.813416,155.362122 L245.813416,155.362122 L245.813416,155.362122 Z" id="Shape-11-copy_1" fill="#FFFFFF"></path>
                <path d="M244.482605,156.255676 C244.482605,156.255676 264.747375,150.00824 264.03421,170.736633 C264.03421,170.736633 261.017151,200.793488 259.70697,203.563599 C259.70697,203.563599 251.748444,221.063751 238.614044,221.839325 C225.777039,222.597321 238.614044,221.839325 238.614044,221.839325 L238.45462,227.480011 C238.45462,227.480011 261.539917,224.535034 265.998688,198.065399 L269.517914,174.019012 C269.517914,174.019012 272.250458,142.195984 245.744781,150.287231 C219.922913,158.169769 245.744781,150.287231 245.744781,150.287231 L244.482605,156.255676" id="Shape-3_1" fill="#3B434F"></path>
                <path d="M251.171326,198.014832 C251.171326,198.014832 252.30542,198.867584 253.279663,198.867584 C254.253906,198.867584 255.374176,198.014832 255.374176,198.014832 L257.465515,177.046295 C257.465515,177.046295 254.580017,166.719849 242.335724,172.177063 L242.046295,178.172729 C242.046295,178.172729 252.788788,174.38208 252.56665,179.102295 C252.352844,183.645752 251.171326,198.014832 251.171326,198.014832 L251.171326,198.014832 Z" id="Shape-4_1" fill="#3B434F"></path>
                <path d="M175,147 C175,147 200.987244,132.0737 218.119781,150.927032 L226.946655,150.675201 C226.946655,150.675201 215.938019,126.643188 170.746674,141.806366 L175,148 L175,147 Z" id="R-copy" fill="#3B434F"></path>
                <path d="M120.764191,147.097351 C120.764191,147.097351 94.863647,132.303131 77.7883,150.989624 L68.990875,150.740021 C68.990875,150.740021 79.962769,126.920685 125.003326,141.949677 L120.764191,148.088501 L120.764191,147.097351 Z" id="R-copy-3" fill="#3B434F"></path>
                <path d="M242.588287,155.800018 C242.588287,155.800018 281.975616,52.456268 160.689972,28.913483 C160.689972,28.913483 135.303375,27.538696 115.475281,3.906677 C115.475281,3.906677 101.31015,23.325073 109.50354,38.175262 C109.50354,38.175262 99.077393,47.27066 71.113708,40.027649 C71.113708,40.027649 66.88147,49.067535 70.26059,59.477386 C70.26059,59.477386 35.087097,74.686096 51.849304,142.716522 C52.009888,143.368073 52.175171,144.024506 52.345337,144.685852 C52.345337,144.685852 67.394684,84.525238 77.938538,83.558044 C77.938538,83.558044 134.752411,116.1745 182.870758,80.77951 C182.870758,80.77951 206.628937,112.47702 235.763428,114.121948 C235.763428,114.121948 241.033142,134.562988 242.588287,155.800018 L242.588287,155.800018 Z" id="fill" fill="#C1BFBD"></path>
                <path d="M245.279999,156.65332 C244.096039,159.865784 240.160004,158.786652 240.160004,158.786652 C238.604858,137.549622 233.76001,116.973328 233.76001,116.973328 C204.242188,113.253967 182.133331,84.973328 182.133331,84.973328 C134.299438,117.848328 78.026672,86.253326 78.026672,86.253326 C66.728363,95.620514 55.41333,145.133331 55.41333,145.133331 C55.243164,144.471985 49.600586,145.784882 49.440002,145.133331 C32.677795,77.102905 66.933319,58.093323 66.933319,58.093323 C63.554199,47.683472 69.066681,36.76001 69.066681,36.76001 C97.030365,44.003021 105.76001,37.613342 105.76001,37.613342 C98.367401,19.095734 114.720001,0.06665 114.720001,0.06665 C134.548096,23.698669 161.65332,26.093323 161.65332,26.093323 C273.201782,48.447388 253.188629,135.194733 245.279999,156.65332 L245.279999,156.65332 Z M159.093323,31.639984 C159.093323,31.639984 136.263092,30.397858 116,9.026672 C116,9.026672 104.39328,24.469818 112.58667,39.320007 C112.58667,39.320007 100.870361,50.829681 72.906677,43.58667 C72.906677,43.58667 70.695038,49.380981 72.906677,60.226654 C72.906677,60.226654 41.546112,76.417084 52.426666,131.480011 C52.556793,132.138306 52.2565,131.245331 52.426666,131.906677 C52.426666,131.906677 65.544495,81.098846 77.600006,80.706665 C77.600006,80.706665 136.462494,114.030823 183.839996,76.866669 C183.839996,76.866669 208.892181,110.208405 238.026672,111.853333 C238.026672,111.853333 240.554016,118.99881 243.573334,140.013336 C243.573334,140.013336 269.124817,52.607788 159.093323,31.639984 L159.093323,31.639984 Z" id="line" fill="#3B434F"></path>
                <path d="M123.091553,26.946655 C123.873779,26.9617 123.872131,27.493988 124.100677,28.04837 C124.44162,28.875427 124.746582,29.717255 125.141327,30.503571 C125.739502,31.695129 126.353333,32.877319 127.064972,33.966064 C127.663361,34.881561 128.3125,35.756378 128.957062,36.625885 C129.329285,37.128021 129.778961,37.573456 130.155396,38.073822 C130.305542,38.273438 130.5065,38.437683 130.659943,38.640411 C130.712494,38.687622 130.765076,38.734833 130.817627,38.782074 C131.010559,39.036774 131.255798,39.236023 131.448303,39.490295 C131.658539,39.694885 131.868805,39.899506 132.07901,40.104095 C132.407288,40.431732 132.71524,40.798645 133.088135,41.079895 C133.166962,41.163818 133.245819,41.247772 133.324646,41.331696 C133.62085,41.555298 133.862885,41.831604 134.160309,42.055664 C134.207611,42.108124 134.254913,42.160614 134.302216,42.213074 C134.731903,42.535583 135.104614,42.93161 135.532074,43.251801 C136.226227,43.771729 136.882568,44.322968 137.597626,44.825653 C138.071869,45.159058 138.539642,45.529053 139.016693,45.86441 C139.865875,46.461365 140.763367,46.995697 141.634094,47.564178 C142.164124,47.910217 142.732056,48.174072 143.273926,48.508484 C144.807404,49.454926 146.486053,50.262665 148.13028,51.0896 C148.661469,51.356781 149.190125,51.573822 149.738556,51.813599 C150.088501,51.966583 150.467499,52.1474 150.81076,52.31723 C151.000702,52.411194 151.184448,52.453064 151.378387,52.537567 C151.798767,52.720703 152.252289,52.916412 152.671326,53.104156 C153.058838,53.277771 153.437744,53.391754 153.838104,53.54483 C154.269653,53.709808 154.727234,53.915588 155.162567,54.079926 C155.919128,54.36557 156.684784,54.616943 157.433105,54.898346 C158.21051,55.190674 158.988617,55.385284 159.78244,55.653778 C161.320801,56.174133 162.958466,56.557648 164.559998,57.038788 C165.039337,57.1828 165.538757,57.251343 166.01059,57.38504 C166.245972,57.451721 166.550842,57.439117 166.751648,57.542419 C166.833435,57.584473 166.92627,57.673035 167.003937,57.731293 C167.128937,57.825012 167.225952,57.981812 167.319305,58.109009 C167.468719,58.312622 167.627411,58.51358 167.745026,58.754303 C167.866882,59.003693 167.900604,59.349976 167.965759,59.635651 C168.018066,59.86499 167.945312,60.1521 167.902679,60.312408 C167.866791,60.447357 167.878754,60.540497 167.83963,60.674377 C167.737762,61.022827 167.582184,61.360687 167.382355,61.618713 C167.175232,61.886139 166.665344,61.892822 166.278625,61.79184 C165.602173,61.615143 164.859985,61.53949 164.197327,61.351135 C164.055664,61.310883 163.942932,61.328613 163.803162,61.288208 C163.034668,61.065948 162.195587,60.939148 161.438019,60.721619 C161.265106,60.671967 161.119446,60.678894 160.949249,60.627167 C160.351257,60.445465 159.728516,60.341553 159.120209,60.155029 C157.595367,59.687439 156.03363,59.298828 154.579193,58.77002 C154.239105,58.646393 153.923309,58.58252 153.585846,58.455261 C151.198792,57.555084 148.829102,56.687653 146.648163,55.590851 C146.074249,55.302216 145.5047,55.073822 144.945251,54.77243 C143.356903,53.916718 141.812622,53.030731 140.309631,52.096893 C140.112152,51.974182 139.919861,51.81662 139.726227,51.687683 C138.853119,51.106262 138.015503,50.514496 137.171906,49.90921 C136.320892,49.298615 135.562469,48.567352 134.727936,47.941895 C134.551941,47.809998 134.403259,47.636749 134.223389,47.501221 C134.170837,47.443512 134.118256,47.385803 134.065704,47.328094 C133.870697,47.180939 133.720093,46.983948 133.529633,46.84021 C133.072784,46.495422 132.686646,46.046021 132.283997,45.644073 C131.903992,45.264709 131.49054,44.89447 131.16449,44.463684 C131.090912,44.395477 131.017334,44.327271 130.943756,44.259064 C130.731934,43.979279 130.458282,43.748688 130.25,43.472137 C129.886444,42.989502 129.458466,42.555267 129.098969,42.071411 C128.651886,41.469727 128.191162,40.87442 127.758728,40.261475 C127.325775,39.647827 126.949646,39.014313 126.544647,38.372864 C125.447418,36.635162 124.55423,34.739594 123.72226,32.722717 C123.420471,31.991119 123.216705,31.20993 122.965424,30.440613 C122.792328,29.910675 122.708496,29.340759 122.55545,28.803802 C122.515533,28.663666 122.53006,28.553101 122.492401,28.410339 C122.411438,28.103668 122.319244,27.721008 122.429321,27.403076 C122.478577,27.260834 122.681061,27.058868 122.823517,27.009613 C122.922729,26.975311 123.01944,27.001312 123.091553,26.946655 L123.091553,26.946655 Z M115.349731,50.554504 C115.910553,50.5578 116.161377,50.970245 116.406158,51.29422 C116.659821,51.629944 117.001617,51.90033 117.257599,52.238525 C117.467804,52.448364 117.67807,52.658234 117.888306,52.868073 C118.031525,53.057343 118.210876,53.205811 118.377075,53.371704 C118.548401,53.542694 118.702087,53.727997 118.8974,53.875336 C119.086609,54.064178 119.275848,54.253082 119.465057,54.441925 C119.659302,54.588562 119.810303,54.785797 120.001129,54.92981 C120.591431,55.375305 121.09549,55.935303 121.688263,56.377777 C122.316711,56.846863 122.907593,57.373932 123.548828,57.825714 C124.388794,58.417542 125.22644,59.018616 126.087372,59.58844 C126.527557,59.879761 126.978241,60.124115 127.427612,60.40683 C127.771179,60.622986 128.128082,60.870972 128.484039,61.067871 C129.962219,61.885559 131.458893,62.688446 132.99353,63.460114 C134.20874,64.071198 135.491394,64.566345 136.746185,65.128418 C137.133057,65.301697 137.512695,65.417053 137.912964,65.569092 C138.816467,65.912201 139.766541,66.261505 140.688049,66.607819 C141.559235,66.935242 142.484955,67.159088 143.36853,67.457703 C143.512848,67.5065 143.635681,67.500885 143.778473,67.552155 C144.235382,67.716156 144.753265,67.818604 145.229065,67.961334 C145.468323,68.033112 145.705688,68.032013 145.938599,68.118744 C146.448639,68.308624 147.092163,68.882538 147.278839,69.393555 C147.602295,70.27887 147.244385,71.286224 146.837372,71.864502 C146.714508,72.039032 146.533081,72.325653 146.317017,72.399628 C145.976562,72.516174 145.61908,72.394287 145.307922,72.305176 C144.90564,72.190002 144.520508,72.172882 144.125366,72.053375 C143.395233,71.83255 142.635345,71.711884 141.90213,71.486786 C140.366821,71.015442 138.836487,70.591736 137.376892,70.038849 C133.997528,68.758698 130.879395,67.256958 128.011017,65.47464 C126.820282,64.734772 125.691589,63.90094 124.5737,63.082397 C124.175659,62.790924 123.81546,62.43219 123.422668,62.138092 C122.884277,61.734924 122.426361,61.249603 121.893219,60.847504 C121.835419,60.784576 121.777588,60.721588 121.719788,60.658661 C121.610657,60.561707 121.49173,60.478058 121.388672,60.375366 C121.304596,60.286194 121.22049,60.196991 121.136383,60.107819 C120.935333,59.956116 120.776703,59.764526 120.600311,59.58844 C120.429016,59.417419 120.243347,59.264038 120.095734,59.069061 C119.980133,58.958893 119.864471,58.848694 119.748871,58.738556 C119.362305,58.228302 118.872742,57.807373 118.487457,57.290588 C118.396576,57.168701 118.263397,57.065796 118.172119,56.944366 C117.801605,56.451538 117.392731,55.983948 117.036865,55.480682 C116.631592,54.907532 116.211029,54.330505 115.838531,53.733673 C115.691772,53.498566 115.579651,53.25824 115.428558,53.025452 C115.262848,52.770111 115.137207,52.501862 114.987091,52.222778 C114.898071,52.057312 114.767151,51.873535 114.703278,51.687683 C114.638397,51.498901 114.617798,51.133423 114.719025,50.963715 C114.788116,50.8479 114.9505,50.665771 115.081696,50.617462 C115.180176,50.581177 115.277191,50.609314 115.349731,50.554504 L115.349731,50.554504 Z M104.753998,62.04364 C105.387207,62.051453 105.546509,62.518311 105.810425,62.893524 C106.235077,63.497284 106.724182,64.053345 107.166412,64.640503 C107.518951,65.108582 107.979156,65.494873 108.333221,65.962555 C108.469849,66.093689 108.606537,66.224884 108.743164,66.356018 C108.939392,66.615173 109.240356,66.915649 109.5,67.11145 C109.552551,67.169159 109.605133,67.226898 109.657684,67.284576 C109.786804,67.413452 109.92041,67.535553 110.067627,67.646576 C110.135956,67.720001 110.204285,67.793488 110.272614,67.866913 C110.622925,68.131378 110.916412,68.472473 111.265961,68.732544 C112.10202,69.354523 112.898071,70.03299 113.757233,70.636902 C115.619415,71.945862 117.670837,73.038635 119.780396,74.099396 C120.469818,74.446045 121.203217,74.703003 121.893219,75.043701 C122.187469,75.188965 122.48941,75.261871 122.791992,75.389954 C123.618958,75.740021 124.505707,76.045074 125.362061,76.365723 C126.547302,76.809509 127.803986,77.088165 129.020111,77.498901 C129.446259,77.642822 129.900726,77.707489 130.313049,77.845154 C130.679779,77.96759 131.05542,77.987579 131.432556,78.096985 C132.179596,78.31369 133.011993,78.433777 133.781891,78.63208 C134.226318,78.746552 134.676788,78.773529 135.106354,78.883911 C135.586243,79.007172 136.088837,79.020813 136.556976,79.135712 C136.662079,79.14621 136.767212,79.156708 136.872314,79.167206 C137.353424,79.289429 137.912598,79.302734 138.401764,79.419006 C138.610504,79.468628 138.790649,79.432922 139.000916,79.481964 C139.684387,79.641388 140.464508,79.608917 141.161072,79.765259 C141.359863,79.809875 141.566742,79.788452 141.744476,79.828217 L141.933685,79.828217 C142.173676,79.881653 142.479248,79.869324 142.722046,79.922638 L142.927032,79.922638 C143.323975,80.010193 143.804077,79.960968 144.204193,80.048553 L144.472229,80.048553 C144.982147,80.159973 145.595093,80.062408 146.112061,80.174469 C146.311768,80.179718 146.511505,80.184967 146.711212,80.190216 C146.824371,80.214691 147.00412,80.177246 147.136932,80.205933 C147.488708,80.281921 147.942352,80.214844 148.303741,80.26889 C148.517365,80.300842 148.775574,80.2435 148.965973,80.284637 C149.13385,80.320892 149.353821,80.268372 149.502045,80.300385 L150.731934,80.300385 C151.70224,80.300385 152.64975,80.273254 153.585846,80.26889 C154.028931,80.266815 154.511566,80.1698 154.878754,80.300385 C155.086243,80.374146 155.277924,80.556091 155.446381,80.678101 C155.825409,80.952606 156.18158,81.345459 156.360901,81.811279 C156.415558,81.953186 156.410889,82.078644 156.455505,82.236206 C156.526978,82.488617 156.629883,82.886047 156.55011,83.227753 C156.49823,83.450012 156.470886,83.719147 156.392426,83.935974 C156.271515,84.270233 155.949249,84.368256 155.57254,84.455353 C155.435883,84.460602 155.299225,84.465851 155.162567,84.4711 C154.580261,84.598145 153.871429,84.486176 153.286255,84.612732 C153.173523,84.637115 153.016693,84.608337 152.923584,84.628479 C152.702881,84.633728 152.482086,84.638977 152.261353,84.644226 C152.047241,84.690369 151.777679,84.623718 151.536072,84.67569 C151.333984,84.719177 151.086975,84.707153 150.858063,84.707184 L150.605774,84.707184 C150.410736,84.749054 150.13739,84.738556 149.927765,84.738647 L149.013275,84.738647 C148.729279,84.799347 148.334076,84.754364 148.019928,84.754395 C147.759644,84.754395 147.431427,84.788483 147.200012,84.738647 L146.66391,84.738647 C146.290771,84.738678 145.922729,84.738586 145.575958,84.707184 L145.039856,84.707184 C144.733551,84.640533 144.33432,84.709778 144.030762,84.644226 L143.668091,84.644226 C143.446045,84.595734 143.146271,84.628754 142.927032,84.581268 L142.611664,84.581268 C142.443024,84.544159 142.197021,84.555054 142.02829,84.518311 L141.776001,84.518311 C141.191589,84.389465 140.518951,84.457336 139.946991,84.329437 C139.789307,84.318939 139.631622,84.308472 139.473938,84.297974 C138.731903,84.129211 137.910156,84.154999 137.187683,83.983185 C136.99118,83.936462 136.829559,83.96756 136.635803,83.920227 C135.964111,83.756134 135.224213,83.710876 134.570282,83.542511 C134.462433,83.51474 134.394165,83.539185 134.286469,83.511047 C133.977142,83.430237 133.614563,83.377533 133.308868,83.29071 C133.166595,83.250275 133.056793,83.268646 132.914673,83.227753 C131.851868,82.921722 130.745056,82.761658 129.69812,82.440826 C127.844025,81.87265 125.970123,81.364349 124.289886,80.615143 C123.909332,80.445465 123.529816,80.347076 123.154633,80.174469 C122.490784,79.86908 121.805908,79.590698 121.152161,79.261627 C120.129181,78.746704 119.129059,78.205048 118.140564,77.656281 C117.445282,77.270294 116.776276,76.798767 116.122345,76.365723 C115.585571,76.010284 115.06723,75.662231 114.545593,75.295502 C114.032318,74.934662 113.553192,74.520203 113.047699,74.146606 C112.533539,73.766602 112.092773,73.288635 111.581299,72.903259 C111.387054,72.756866 111.2229,72.51413 111.029449,72.368134 C110.552338,72.008118 110.157104,71.528931 109.736511,71.10907 C107.941315,69.316895 106.416687,67.257721 105.053589,65.033966 C104.738953,64.520721 104.510071,63.985291 104.233673,63.42865 C104.107758,63.175049 103.975891,62.832733 104.107544,62.484314 C104.149506,62.37326 104.374695,62.148499 104.485962,62.106598 C104.57724,62.072235 104.684723,62.095734 104.753998,62.04364 L104.753998,62.04364 Z M209.103058,77.561859 C209.677094,77.568268 209.854156,77.949249 210.096405,78.285828 C210.335724,78.618317 210.607574,78.930298 210.853241,79.261627 C211.374664,79.964844 212.02948,80.564636 212.556152,81.260437 C212.739929,81.503235 213.000671,81.691284 213.186829,81.937195 C213.260406,82.005371 213.334015,82.073578 213.407593,82.141785 C213.663544,82.479828 214.007782,82.756653 214.306335,83.054626 C214.563843,83.311646 214.821411,83.568787 215.078949,83.825806 C215.484192,84.131683 215.812317,84.561279 216.214203,84.864563 C216.443848,85.037872 216.634399,85.261353 216.860657,85.431152 C217.606171,85.99057 218.283661,86.641449 219.03656,87.193848 C220.170715,88.02597 221.306732,88.865723 222.489655,89.649078 C224.268127,90.826843 226.156006,91.890259 228.07132,92.922699 C229.159271,93.509155 230.299683,94.007324 231.414032,94.559509 C231.810242,94.755829 232.225769,94.903381 232.612366,95.094604 C232.755615,95.165466 232.894806,95.181183 233.038086,95.252014 C233.654755,95.556763 234.341949,95.787537 234.977478,96.070404 C235.140869,96.143127 235.282898,96.164246 235.4505,96.227783 C236.069153,96.462402 236.723877,96.701477 237.358368,96.936035 C237.715057,97.067871 238.138336,97.119049 238.462067,97.298004 C239.279846,97.750061 240.034271,98.719025 239.613098,100.005035 C239.463196,100.462799 239.209076,100.818787 238.950867,101.169708 C238.772766,101.411743 238.55011,101.507996 238.225555,101.610382 C238.146179,101.635406 237.792389,101.510345 237.721008,101.484467 C237.286499,101.326904 236.849548,101.252106 236.412323,101.10675 C234.153473,100.355713 231.983673,99.561035 229.90036,98.65152 C226.527863,97.17923 223.505554,95.300659 220.660614,93.300415 C219.832947,92.718506 219.085846,92.030426 218.279724,91.427521 C218.043396,91.250763 217.84079,91.02536 217.601715,90.845215 C217.554443,90.792755 217.507111,90.740265 217.459808,90.687836 C217.138733,90.445709 216.880768,90.142059 216.561066,89.900879 C216.419189,89.754028 216.277252,89.607086 216.135345,89.460205 C215.974426,89.338806 215.850403,89.191528 215.709625,89.051025 C215.568878,88.910492 215.421295,88.786713 215.299683,88.626068 C215.199829,88.531647 215.099945,88.437195 215.000092,88.342773 C214.81958,88.162415 214.634216,87.964569 214.479767,87.760437 C214.385162,87.666016 214.290558,87.571564 214.195953,87.477142 C213.993103,87.209198 213.733368,86.986755 213.533722,86.72171 C213.013031,86.030487 212.445557,85.389801 211.941223,84.67569 C211.488159,84.03421 210.990295,83.397705 210.569427,82.724121 C210.030273,81.861145 209.536652,80.970978 209.055756,80.048553 C208.844604,79.643524 208.605072,79.135986 208.456604,78.695038 C208.390625,78.499054 208.371155,78.147949 208.472382,77.971069 C208.54129,77.850586 208.700562,77.675476 208.835022,77.624817 C208.92627,77.590454 209.033844,77.613983 209.103058,77.561859 L209.103058,77.561859 Z" id="new_vector_shape_done" fill="#3B434F" opacity="0.2"></path>
                <path d="M155.893341,196.333344 L157.386658,196.333344 C160.474121,200.526306 161.730225,206.969757 163.359985,212.546661 C163.865051,214.274963 163.375061,217.297974 162.933319,218.519989 C161.315552,222.995514 156.235687,222.915192 152.053345,224.919983 C150.930115,225.458435 150.094604,226.387817 148.640015,226.626678 C147.691711,225.791351 146.546722,225.627289 146.079987,224.279999 C144.927673,222.693268 146.412811,221.702393 147.573334,221.079987 C149.679565,219.950409 156.181488,218.837097 156.959991,216.813324 C157.923218,215.71759 157.282745,212.423157 156.959991,211.266663 C156.133392,208.304504 155.736633,205.831543 154.613342,203.160004 C153.867188,201.385498 152.557159,199.514496 153.333344,197.399994 C153.976532,197.12381 155.366638,196.809784 155.893341,196.333344 L155.893341,196.333344 Z" id="new_vector_shape_done_1" fill="#3B434F"></path>
                <path d="M101.066681,160.066681 C105.77951,160.066681 109.600006,163.887177 109.600006,168.600006 C109.600006,173.312836 105.77951,177.133331 101.066681,177.133331 C96.353851,177.133331 92.533325,173.312836 92.533325,168.600006 C92.533325,163.887177 96.353851,160.066681 101.066681,160.066681 L101.066681,160.066681 Z" id="oko" fill="#3B434F"></path>
                <path d="M195.786652,160.066681 C200.499481,160.066681 204.319977,163.887177 204.319977,168.600006 C204.319977,173.312836 200.499481,177.133331 195.786652,177.133331 C191.073853,177.133331 187.253326,173.312836 187.253326,168.600006 C187.253326,163.887177 191.073853,160.066681 195.786652,160.066681 L195.786652,160.066681 Z" id="oko_1" fill="#3B434F"></path>
                <path d="M199.626678,191.640015 C205.5177,191.640015 210.293335,196.415649 210.293335,202.306671 C210.293335,208.197693 205.5177,212.973328 199.626678,212.973328 C193.735626,212.973328 188.960022,208.197693 188.960022,202.306671 C188.960022,196.415649 193.735626,191.640015 199.626678,191.640015 L199.626678,191.640015 Z" id="Ellipse-3" fill="#F5F3EF"></path>
                <path d="M96.373352,191.640015 C102.264374,191.640015 107.040009,196.415649 107.040009,202.306671 C107.040009,208.197693 102.264374,212.973328 96.373352,212.973328 C90.4823,212.973328 85.706696,208.197693 85.706696,202.306671 C85.706696,196.415649 90.4823,191.640015 96.373352,191.640015 L96.373352,191.640015 Z" id="Ellipse-3-copy" fill="#F4F3EF"></path>
            </g>
        </g>
    </g>
</svg>