<?xml version="1.0" encoding="UTF-8" standalone="no"?>
<svg width="1360px" height="434px" viewBox="0 0 1360 434" version="1.1" xmlns="http://www.w3.org/2000/svg" xmlns:xlink="http://www.w3.org/1999/xlink">
    <!-- Generator: Sketch 3.8.3 (29802) - http://www.bohemiancoding.com/sketch -->
    <title>Group</title>
    <desc>Created with Sketch.</desc>
    <defs></defs>
    <g id="Page-1" stroke="none" stroke-width="1" fill="none" fill-rule="evenodd">
        <g id="Group">
            <path d="M193.789062,325.507812 C193.789062,334.492232 193.496097,342.40231 192.910156,349.238281 C192.324216,356.074253 191.510422,362.096328 190.46875,367.304688 C187.343734,381.627676 181.224004,393.93224 172.109375,404.21875 C154.921789,424.010516 131.289213,433.90625 101.210938,433.90625 C75.8201855,433.90625 54.921957,427.070381 38.515625,413.398438 C21.588457,399.335867 11.8229297,379.869916 9.21875,355 L53.359375,355 C55.0520918,364.375047 57.851543,371.601537 61.7578125,376.679688 C70.8724414,388.528705 84.1535586,394.453125 101.601563,394.453125 C133.763182,394.453125 149.84375,374.72676 149.84375,335.273438 L149.84375,308.710938 C132.395746,326.549568 112.27876,335.46875 89.4921875,335.46875 C63.5805996,335.46875 42.3568535,326.093844 25.8203125,307.34375 C9.1535625,288.333238 0.8203125,264.570455 0.8203125,236.054688 C0.8203125,208.320174 8.56763086,184.752701 24.0625,165.351562 C40.72925,144.778543 62.7342383,134.492188 90.078125,134.492188 C114.036578,134.492188 133.958254,143.411369 149.84375,161.25 L149.84375,139.765625 L193.789062,139.765625 L193.789062,325.507812 Z M151.601562,235.273438 C151.601562,216.783762 146.653695,202.005264 136.757812,190.9375 C126.731721,179.609318 113.906328,173.945312 98.28125,173.945312 C81.6145,173.945312 68.4635898,180.130146 58.828125,192.5 C50.104123,203.567764 45.7421875,217.890537 45.7421875,235.46875 C45.7421875,252.786545 50.104123,266.979111 58.828125,278.046875 C68.3333809,290.156311 81.484291,296.210938 98.28125,296.210938 C115.078209,296.210938 128.359326,290.091207 138.125,277.851562 C147.10942,266.783799 151.601562,252.591232 151.601562,235.273438 L151.601562,235.273438 Z M372.5,139.765625 L421.71875,246.601562 L470.742188,139.765625 L520.15625,139.765625 L421.328125,343.085938 L323.28125,139.765625 L372.5,139.765625 Z M716.25,245.234375 L579.921875,245.234375 C581.093756,260.859453 586.17183,273.294225 595.15625,282.539062 C604.14067,291.653691 615.663992,296.210938 629.726562,296.210938 C640.664117,296.210938 649.713506,293.606797 656.875,288.398438 C663.906285,283.190078 671.914018,273.554758 680.898438,259.492188 L718.007812,280.195312 C712.278617,289.960986 706.22399,298.326788 699.84375,305.292969 C693.46351,312.259149 686.627641,317.988259 679.335938,322.480469 C672.044234,326.972679 664.166709,330.260406 655.703125,332.34375 C647.239541,334.427094 638.059945,335.46875 628.164062,335.46875 C599.778504,335.46875 576.992273,326.354258 559.804688,308.125 C542.617102,289.765533 534.023438,265.416818 534.023438,235.078125 C534.023438,204.99985 542.356688,180.651135 559.023438,162.03125 C575.820396,143.671783 598.085799,134.492188 625.820312,134.492188 C653.815244,134.492188 675.950439,143.411369 692.226562,161.25 C708.372477,178.958422 716.445312,203.502447 716.445312,234.882812 L716.25,245.234375 Z M671.132812,209.296875 C665.01299,185.859258 650.234492,174.140625 626.796875,174.140625 C621.458307,174.140625 616.445336,174.954419 611.757812,176.582031 C607.070289,178.209644 602.806009,180.55337 598.964844,183.613281 C595.123679,186.673192 591.835951,190.351541 589.101562,194.648438 C586.367174,198.945334 584.283861,203.828098 582.851562,209.296875 L671.132812,209.296875 Z M764.296875,139.765625 L808.242188,139.765625 L808.242188,156.757812 C816.315145,148.294229 823.476531,142.500016 829.726562,139.375 C836.106803,136.119775 843.658811,134.492188 852.382812,134.492188 C863.971412,134.492188 876.080666,138.268191 888.710938,145.820312 L868.59375,186.054688 C860.260375,180.065074 852.122436,177.070312 844.179688,177.070312 C820.221234,177.070312 808.242188,195.16909 808.242188,231.367188 L808.242188,330 L764.296875,330 L764.296875,139.765625 Z M1024.45312,172.1875 L988.125,191.523438 C982.395805,179.804629 975.299521,173.945312 966.835938,173.945312 C962.799459,173.945312 959.348973,175.279935 956.484375,177.949219 C953.619777,180.618503 952.1875,184.036437 952.1875,188.203125 C952.1875,195.494828 960.650957,202.721318 977.578125,209.882812 C1000.88553,219.908904 1016.57548,229.153604 1024.64844,237.617188 C1032.72139,246.080771 1036.75781,257.473887 1036.75781,271.796875 C1036.75781,290.156342 1029.98705,305.520771 1016.44531,317.890625 C1003.29421,329.609434 987.408947,335.46875 968.789062,335.46875 C936.887861,335.46875 914.296941,319.90901 901.015625,288.789062 L938.515625,271.40625 C943.723984,280.520879 947.695299,286.315092 950.429688,288.789062 C955.768256,293.737004 962.1484,296.210938 969.570312,296.210938 C984.414137,296.210938 991.835938,289.440172 991.835938,275.898438 C991.835938,268.085898 986.106828,260.794305 974.648438,254.023438 C970.221332,251.809885 965.794293,249.661469 961.367188,247.578125 C956.940082,245.494781 952.447939,243.346365 947.890625,241.132812 C935.130145,234.882781 926.145859,228.632844 920.9375,222.382812 C914.296842,214.440064 910.976562,204.218813 910.976562,191.71875 C910.976562,175.182209 916.640568,161.510471 927.96875,150.703125 C939.55735,139.895779 953.619709,134.492188 970.15625,134.492188 C994.50533,134.492188 1012.60411,147.057166 1024.45312,172.1875 L1024.45312,172.1875 Z M1216.44531,139.765625 L1260.58594,139.765625 L1260.58594,330 L1216.44531,330 L1216.44531,310.078125 C1198.34626,327.005293 1178.88031,335.46875 1158.04688,335.46875 C1131.74466,335.46875 1110.00009,325.963637 1092.8125,306.953125 C1075.75512,287.551986 1067.22656,263.333479 1067.22656,234.296875 C1067.22656,205.781107 1075.75512,182.018324 1092.8125,163.007812 C1109.86988,143.997301 1131.22383,134.492188 1156.875,134.492188 C1179.01053,134.492188 1198.8671,143.60668 1216.44531,161.835938 L1216.44531,139.765625 Z M1112.14844,234.296875 C1112.14844,252.526133 1117.0312,267.369734 1126.79688,278.828125 C1136.82297,290.416725 1149.45305,296.210938 1164.6875,296.210938 C1180.96362,296.210938 1194.11453,290.612035 1204.14062,279.414062 C1214.16672,267.825463 1219.17969,253.112068 1219.17969,235.273438 C1219.17969,217.434807 1214.16672,202.721412 1204.14062,191.132812 C1194.11453,179.804631 1181.09383,174.140625 1165.07812,174.140625 C1149.97388,174.140625 1137.3438,179.869734 1127.1875,191.328125 C1117.16141,202.916725 1112.14844,217.239498 1112.14844,234.296875 L1112.14844,234.296875 Z M1360,0.1171875 L1360,330 L1316.05469,330 L1316.05469,0.1171875 L1360,0.1171875 Z" id="giversal" fill="#001691"></path>
            <path d="M242.617188,60.6640625 C242.617188,52.9817324 245.416639,46.3411738 251.015625,40.7421875 C256.614611,35.1432012 263.320273,32.34375 271.132812,32.34375 C279.075561,32.34375 285.846326,35.1432012 291.445312,40.7421875 C297.044299,46.2109648 299.84375,52.916627 299.84375,60.859375 C299.84375,68.802123 297.044299,75.5728887 291.445312,81.171875 C285.976535,86.7708613 279.270873,89.5703125 271.328125,89.5703125 C263.385377,89.5703125 256.614611,86.7708613 251.015625,81.171875 C245.416639,75.5728887 242.617188,68.7370195 242.617188,60.6640625 L242.617188,60.6640625 Z" id="Path" fill="#FF4081"></path>
            <polygon id="Path" fill="#FF4081" points="293.203125 139.765625 293.203125 330 249.257812 330 249.257812 139.765625"></polygon>
        </g>
    </g>
</svg>