<?xml version="1.0" encoding="UTF-8" standalone="no"?>
<svg width="322px" height="438px" viewBox="0 0 322 438" version="1.1" xmlns="http://www.w3.org/2000/svg" xmlns:xlink="http://www.w3.org/1999/xlink">
    <!-- Generator: Sketch 3.8.3 (29802) - http://www.bohemiancoding.com/sketch -->
    <title>svg11811</title>
    <desc>Created with Sketch.</desc>
    <defs></defs>
    <g id="Symbols" stroke="none" stroke-width="1" fill="none" fill-rule="evenodd">
        <g id="users-14">
            <g id="svg11811">
                <path d="M321.426666,325.498413 C301.031616,414.706512 196.637573,379.769043 161,364.94754 L161,364.852722 C125.362427,379.685608 20.968384,414.649902 0.573334,325.373322 C0.573334,325.373322 37.15332,325.766663 26.17334,211.026672 C26.17334,211.026672 -13.456757,-16.273193 161,2.725372 L161,3.097839 C335.456757,-15.886169 295.82666,211.23941 295.82666,211.23941 C284.84668,325.891449 321.426666,325.498413 321.426666,325.498413 L321.426666,325.498413 Z" id="Shape-12" fill="#3B434F"></path>
                <path d="M18.359985,434 C18.359985,434 11.744995,344.01178 96.440002,335.613342 L134.41333,335.613342 L134.41333,318.119995 C134.41333,318.119995 161.125,329.593323 188.17334,319.399994 L189.026672,335.613342 L233.399994,335.613342 C233.399994,335.613342 309.385406,338.597595 305.933319,434.853333 L18.359985,434 L18.359985,434 Z" id="body-bg-flat-copy" fill="#FFFFFF"></path>
                <path d="M306.675262,437.58667 L306.675262,437.58667 L22.158875,437.58667 L22.158875,437.58667 L16.640991,437.58667 L18.018341,414.056854 C20.707642,368.114624 56.905212,333.053345 98.328339,333.053345 L129.853333,333.053345 L129.853333,337.746674 L100.843048,337.746674 C60.919678,337.746674 26.032654,371.495087 23.440704,415.71701 L22.483978,432.040009 L305.923492,432.040009 L305.393433,415.71701 C302.801483,371.495087 267.914459,337.746674 227.991058,337.746674 L189.160004,337.746674 L189.160004,333.053345 L230.252747,333.053345 C271.675873,333.053345 307.873444,368.114624 310.562744,414.056854 L311.940094,437.58667 L306.675262,437.58667 L306.675262,437.58667 Z" id="Rounded-Rectangle-13" fill="#3B434F"></path>
                <path d="M159.720001,385.959991 C136.862793,385.959991 118.333313,367.430573 118.333313,344.573334 C118.333313,340.573883 118.911926,336.7117 119.970459,333.053345 L120.040009,333.053345 L124.431793,333.053345 L131.986664,333.053345 L131.986664,337.746674 L123.238647,337.746674 C122.824432,339.959839 122.599976,342.239716 122.599976,344.573334 C122.599976,365.074158 139.219208,381.693329 159.720001,381.693329 C180.220825,381.693329 196.839996,365.074158 196.839996,344.573334 C196.839996,342.239716 196.61557,339.959839 196.201324,337.746674 L187.453339,337.746674 L187.453339,333.053345 L195.008179,333.053345 L199.399994,333.053345 L199.469513,333.053345 C200.528046,336.7117 201.106659,340.573883 201.106659,344.573334 C201.106659,367.430573 182.57724,385.959991 159.720001,385.959991 L159.720001,385.959991 Z" id="Ellipse-4" fill="#3B434F"></path>
                <path d="M135.399994,316.146088 L135.399994,342.461182 C135.399994,356.116669 146.479462,367.186676 160.146667,367.186676 C173.813873,367.186676 184.893341,356.116669 184.893341,342.461182 L184.893341,316.688995 C186.329498,316.251862 187.752136,315.777069 189.160004,315.26413 L189.160004,342.640289 C189.160004,358.78891 176.074799,371.880005 159.93335,371.880005 C143.791901,371.880005 130.706665,358.78891 130.706665,342.640289 L130.706665,314.453674 C132.252502,315.064911 133.818207,315.627106 135.399994,316.146088 L135.399994,316.146088 Z" id="neck" fill="#3B434F"></path>
                <path d="M161.214661,48.466644 C214.292542,48.466644 256.186951,98.067871 254.824738,157.664948 L253.376923,221.006104 C252.093597,277.152466 210.845428,321.533325 161.214661,321.533325 C111.583893,321.533325 70.335724,277.152466 69.052399,221.006104 L67.604584,157.664948 C66.242401,98.067871 108.13678,48.466644 161.214661,48.466644 L161.214661,48.466644 Z" id="2-copy-5" fill="#FFFFFF"></path>
                <path d="M259.089386,155.701141 L257.572327,221.615509 C256.227631,280.042816 213.006287,326.226654 161.001404,326.226654 C108.99649,326.226654 65.775177,280.042816 64.43045,221.615509 L62.913361,155.701141 C61.486023,93.682922 105.384491,42.06665 161.001404,42.06665 C216.618317,42.06665 260.516754,93.682922 259.089386,155.701141 L259.089386,155.701141 Z M160.7883,48.893311 C108.436035,48.893311 67.11438,98.107025 68.457916,157.238495 L69.885956,220.084808 C71.151733,275.792511 111.836029,319.82666 160.7883,319.82666 C209.74057,319.82666 250.424835,275.792511 251.690613,220.084808 L253.118622,157.238495 C254.462219,98.107025 213.140564,48.893311 160.7883,48.893311 L160.7883,48.893311 Z" id="2-line" fill="#3B434F"></path>
                <path d="M207.079987,259.325928 C199.324768,266.059753 181.808014,272.466644 161.426697,272.466644 C141.045349,272.466644 123.528595,266.059753 115.773346,259.325928 C115.773346,259.325928 114.979889,257.142639 116.144043,255.978485 C117.329742,254.792786 119.186676,255.050842 119.186676,255.050842 C126.933777,261.789246 141.037567,267.34668 161.426697,267.34668 C181.815796,267.34668 195.919586,261.789246 203.666687,255.050842 C203.666687,255.050842 205.561707,254.346893 206.482269,255.267456 C208.25531,257.040497 207.079987,259.325928 207.079987,259.325928 L207.079987,259.325928 Z" id="usta" fill="#3B434F"></path>
                <path d="M147.34668,282.706665 L174.653351,282.706665 L174.653351,286.973328 L147.34668,286.973328 L147.34668,282.706665 L147.34668,282.706665 Z" id="-" fill="#3B434F"></path>
                <path d="M62.80722,165.313141 C62.795441,165.313812 61.759613,164.486603 59.803619,163.870758 C58.826019,163.563507 57.611023,163.31076 56.226166,163.248444 C55.88031,163.23288 55.524353,163.229187 55.160126,163.239532 C54.795898,163.249878 54.42337,163.274231 54.044708,163.314667 C53.287476,163.395569 52.505402,163.540955 51.718414,163.767334 C48.567261,164.672913 45.352692,166.874664 43.464783,171.419098 C42.51709,173.691437 41.891907,176.549713 41.726624,180.125916 C41.685272,181.019989 41.672638,181.958923 41.690765,182.944794 C41.708923,183.930664 41.757874,184.96347 41.83963,186.045288 C42.003052,188.208832 42.298157,190.568451 42.737854,193.139679 C42.728241,193.137146 42.327759,200.909668 45.106445,209.84082 C47.718689,218.572784 53.991516,229.299225 65.573334,232.36441 C64.241302,210.185028 64.199921,187.589905 62.80722,165.313141 L62.80722,165.313141 L62.80722,165.313141 Z" id="Shape-11-copy" fill="#FFFFFF"></path>
                <path d="M64.127869,166.207275 C64.127869,166.207275 43.951477,159.955597 44.66153,180.69809 C44.66153,180.69809 47.665436,210.77536 48.969879,213.547363 C48.969879,213.547363 56.893707,231.059387 69.970856,231.83548 C82.751862,232.593994 69.970856,231.83548 69.970856,231.83548 L70.129578,237.480011 C70.129578,237.480011 47.144928,234.53302 42.705597,208.04541 L39.201721,183.982697 C39.201721,183.982697 36.48111,152.138062 62.871185,160.234802 C88.580475,168.122681 62.871185,160.234802 62.871185,160.234802 L64.127869,166.207275" id="Shape-3" fill="#3B434F"></path>
                <path d="M57.468323,207.994812 C57.468323,207.994812 56.339172,208.848145 55.369171,208.848145 C54.39917,208.848145 53.283783,207.994812 53.283783,207.994812 L51.201569,187.012024 C51.201569,187.012024 54.074493,176.678558 66.265381,182.139496 L66.553558,188.139221 C66.553558,188.139221 55.85791,184.346008 56.079071,189.069427 C56.291962,193.615967 57.468323,207.994812 57.468323,207.994812 L57.468323,207.994812 Z" id="Shape-4" fill="#3B434F"></path>
                <path d="M258.813416,165.362122 C258.825256,165.362793 259.865631,164.536163 261.83017,163.920715 C262.812073,163.613678 264.032379,163.361115 265.423309,163.298828 C265.77066,163.283295 266.128174,163.279602 266.494019,163.289948 C266.859833,163.300262 267.233978,163.324615 267.614319,163.365021 C268.374847,163.445862 269.16037,163.591156 269.950806,163.817383 C273.115753,164.722351 276.344391,166.922607 278.24057,171.463959 C279.192413,173.734741 279.820343,176.591064 279.986328,180.164856 C280.027863,181.058319 280.040558,181.996613 280.022369,182.981812 C280.00412,183.96701 279.954956,184.999115 279.872833,186.0802 C279.70871,188.242279 279.412292,190.600311 278.970673,193.169769 C278.980347,193.167236 279.382568,200.934509 276.591705,209.859589 C273.968048,218.585632 267.667725,229.304779 256.035187,232.367889 C257.373047,210.203552 257.414612,187.623779 258.813416,165.362122 L258.813416,165.362122 L258.813416,165.362122 Z" id="Shape-11-copy_1" fill="#FFFFFF"></path>
                <path d="M257.482605,166.255676 C257.482605,166.255676 277.747375,160.00824 277.03421,180.736633 C277.03421,180.736633 274.017151,210.793488 272.70697,213.563599 C272.70697,213.563599 264.748444,231.063751 251.614044,231.839325 C238.777039,232.597321 251.614044,231.839325 251.614044,231.839325 L251.45462,237.480011 C251.45462,237.480011 274.539917,234.535034 278.998688,208.065399 L282.517914,184.019012 C282.517914,184.019012 285.250458,152.195984 258.744781,160.287231 C232.922913,168.169769 258.744781,160.287231 258.744781,160.287231 L257.482605,166.255676" id="Shape-3_1" fill="#3B434F"></path>
                <path d="M264.171326,208.014832 C264.171326,208.014832 265.30542,208.867584 266.279663,208.867584 C267.253906,208.867584 268.374176,208.014832 268.374176,208.014832 L270.465515,187.046295 C270.465515,187.046295 267.580017,176.719849 255.335724,182.177063 L255.046295,188.172729 C255.046295,188.172729 265.788788,184.38208 265.56665,189.102295 C265.352844,193.645752 264.171326,208.014832 264.171326,208.014832 L264.171326,208.014832 Z" id="Shape-4_1" fill="#3B434F"></path>
                <path d="M168.893341,206.333344 L170.386658,206.333344 C173.474121,210.526306 174.730225,216.969757 176.359985,222.546661 C176.865051,224.274963 176.375061,227.297974 175.933319,228.519989 C174.315552,232.995514 169.235687,232.915192 165.053345,234.919983 C163.930115,235.458435 163.094604,236.387817 161.640015,236.626678 C160.691711,235.791351 159.546722,235.627289 159.079987,234.279999 C157.927673,232.693268 159.412811,231.702393 160.573334,231.079987 C162.679565,229.950409 169.181488,228.837097 169.959991,226.813324 C170.923218,225.71759 170.282745,222.423157 169.959991,221.266663 C169.133392,218.304504 168.736633,215.831543 167.613342,213.160004 C166.867188,211.385498 165.557159,209.514496 166.333344,207.399994 C166.976532,207.12381 168.366638,206.809784 168.893341,206.333344 L168.893341,206.333344 Z" id="new_vector_shape_done" fill="#3B434F"></path>
                <path d="M212.626678,201.640015 C218.5177,201.640015 223.293335,206.415649 223.293335,212.306671 C223.293335,218.197693 218.5177,222.973328 212.626678,222.973328 C206.735626,222.973328 201.960022,218.197693 201.960022,212.306671 C201.960022,206.415649 206.735626,201.640015 212.626678,201.640015 L212.626678,201.640015 Z" id="Ellipse-3" fill="#EDF1F1"></path>
                <path d="M109.373352,201.640015 C115.264374,201.640015 120.040009,206.415649 120.040009,212.306671 C120.040009,218.197693 115.264374,222.973328 109.373352,222.973328 C103.4823,222.973328 98.706696,218.197693 98.706696,212.306671 C98.706696,206.415649 103.4823,201.640015 109.373352,201.640015 L109.373352,201.640015 Z" id="Ellipse-3-copy" fill="#EDF1F1"></path>
                <path d="M246.333344,162.386658 L246.333344,193.959991 C246.333344,201.67572 238.806915,213.715454 226.542847,214.404938 C224.741241,214.319031 188.306671,214.440002 188.306671,214.440002 C171.928345,214.440002 168.679993,194.813324 168.679993,194.813324 L168.679993,173.480011 L153.320007,173.480011 L153.320007,194.813324 C153.320007,194.813324 150.071655,214.440002 133.693329,214.440002 C133.693329,214.440002 97.258759,214.319031 95.457153,214.404938 C83.193085,213.715454 75.666656,201.67572 75.666656,193.959991 L75.666656,162.386658 L62.013336,162.386658 L62.013336,153.853333 L141.373322,153.853333 C141.373322,153.853333 153.320007,155.783325 153.320007,164.093323 L168.679993,164.093323 C168.679993,155.783325 180.626678,153.853333 180.626678,153.853333 L259.986664,153.853333 L259.986664,162.386658 L246.333344,162.386658 L246.333344,162.386658 Z M144.786652,166.65332 C144.786652,163.611664 141.373322,163.23999 141.373322,163.23999 L84.200012,163.23999 L84.200012,193.106659 C84.200012,202.412506 97,205.906677 97,205.906677 L131.986664,205.906677 C144.02417,205.906677 144.786652,193.106659 144.786652,193.106659 L144.786652,166.65332 L144.786652,166.65332 Z M237.799988,163.23999 L180.626678,163.23999 C180.626678,163.23999 177.213348,163.611664 177.213348,166.65332 L177.213348,193.106659 C177.213348,193.106659 177.97583,205.906677 190.013336,205.906677 L225,205.906677 C225,205.906677 237.799988,202.412506 237.799988,193.106659 L237.799988,163.23999 L237.799988,163.23999 Z M225.853333,214.440002 C226.085968,214.43515 226.313477,214.417847 226.542847,214.404938 C226.735718,214.414154 226.541962,214.425659 225.853333,214.440002 L225.853333,214.440002 Z M95.457153,214.404938 C95.686523,214.417847 95.914032,214.43515 96.146667,214.440002 C95.458038,214.425659 95.264282,214.414154 95.457153,214.404938 L95.457153,214.404938 Z" id="Shape-1-copy-5" fill="#3B434F"></path>
                <path d="M161,95.009369 L161,0.530792 C161.28479,0.528595 161.568024,0.519989 161.853333,0.519989 C221.706268,0.519989 270.226654,49.040405 270.226654,108.893341 L270.226654,143.723328 C270.204895,144.937103 270.203796,146.128418 270.226654,147.293335 C270.226654,147.293335 169.577911,120.073395 161,95.009369 L161,95.009369 Z M51.773346,147.293335 C51.796204,146.128418 51.795105,144.937103 51.773346,143.723328 L51.773346,108.893341 C51.773346,49.040405 100.293732,0.519989 160.146667,0.519989 C160.431976,0.519989 160.71521,0.528595 161,0.530792 L161,95.009369 C152.422089,120.073395 51.773346,147.293335 51.773346,147.293335 L51.773346,147.293335 Z" id="Rounded-Rectangle-6" fill="#3B434F"></path>
                <path d="M220.066651,184.533325 C220.066651,189.246155 216.246155,193.06665 211.533326,193.06665 C206.820527,193.06665 203,189.246155 203,184.533325 C203,179.820496 206.820527,176 211.533326,176 C216.246155,176 220.066651,179.820496 220.066651,184.533325 Z" id="oko_1" fill="#3B434F"></path>
                <path d="M118.34668,184.533325 C118.34668,189.246155 114.526184,193.06665 109.813355,193.06665 C105.100525,193.06665 101.279999,189.246155 101.279999,184.533325 C101.279999,179.820496 105.100525,176 109.813355,176 C114.526184,176 118.34668,179.820496 118.34668,184.533325 Z" id="oko" fill="#3B434F"></path>
            </g>
        </g>
    </g>
</svg>