<?xml version="1.0" encoding="UTF-8" standalone="no"?>
<svg width="321px" height="432px" viewBox="0 0 321 432" version="1.1" xmlns="http://www.w3.org/2000/svg" xmlns:xlink="http://www.w3.org/1999/xlink">
    <!-- Generator: Sketch 3.8.3 (29802) - http://www.bohemiancoding.com/sketch -->
    <title>users-5</title>
    <desc>Created with Sketch.</desc>
    <defs></defs>
    <g id="Page-1" stroke="none" stroke-width="1" fill="none" fill-rule="evenodd">
        <g id="users-5">
            <g id="svg4837">
                <path d="M160.426666,363.870072 C124.789093,378.60814 20.39505,413.572434 0,324.295854 C0,324.295854 36.579986,324.689195 25.600006,209.949204 C25.600006,209.949204 -14.030091,-17.3506613 160.426666,1.6479037 C334.883423,-16.9636373 295.253326,210.161942 295.253326,210.161942 C284.273346,324.813981 320.853332,324.420945 320.853332,324.420945 C300.458282,413.629044 196.064239,378.691575 160.426666,363.870072 Z" id="Shape-12" fill="#3B434F"></path>
                <path d="M153.866669,22.706665 C213.012665,22.706665 260.959991,70.653992 260.959991,129.799988 L260.959991,151.986664 C260.959991,211.13266 213.012665,259.079987 153.866669,259.079987 C94.720673,259.079987 46.773346,211.13266 46.773346,151.986664 L46.773346,129.799988 C46.773346,70.653992 94.720673,22.706665 153.866669,22.706665 L153.866669,22.706665 Z" id="Rounded-Rectangle-7" fill="#3B444F"></path>
                <path d="M89.440002,331.613342 L127.41333,331.613342 L127.41333,314.119995 C127.41333,314.119995 154.125,325.593323 181.17334,315.399994 L182.026672,331.613342 L226.399994,331.613342 C226.399994,331.613342 302.385406,334.597595 298.933319,430.853333 L11.359985,430 C11.359985,430 4.744995,340.01178 89.440002,331.613342 Z" id="body-bg-flat-copy" fill="#FFFFFF"></path>
                <path d="M156.214661,44.466644 C209.292542,44.466644 251.186951,94.067871 249.824738,153.664948 L248.376923,217.006104 C247.093597,273.152466 205.845428,317.533325 156.214661,317.533325 C106.583893,317.533325 65.335724,273.152466 64.052399,217.006104 L62.604584,153.664948 C61.242401,94.067871 103.13678,44.466644 156.214661,44.466644 L156.214661,44.466644 Z" id="2-copy-5" fill="#FFFFFF"></path>
                <path d="M254.089386,151.701141 L252.572327,217.615509 C251.227631,276.042816 208.006287,322.226654 156.001404,322.226654 C103.99649,322.226654 60.775177,276.042816 59.43045,217.615509 L57.913361,151.701141 C56.486023,89.682922 100.384491,38.06665 156.001404,38.06665 C211.618317,38.06665 255.516754,89.682922 254.089386,151.701141 L254.089386,151.701141 Z M155.7883,44.893311 C103.436035,44.893311 62.11438,94.107025 63.457916,153.238495 L64.885956,216.084808 C66.151733,271.792511 106.836029,315.82666 155.7883,315.82666 C204.74057,315.82666 245.424835,271.792511 246.690613,216.084808 L248.118622,153.238495 C249.462219,94.107025 208.140564,44.893311 155.7883,44.893311 L155.7883,44.893311 Z" id="2-line" fill="#3B434F"></path>
                <path d="M202.079987,255.325928 C194.324768,262.059753 176.808014,268.466644 156.426697,268.466644 C136.045349,268.466644 118.528595,262.059753 110.773346,255.325928 C110.773346,255.325928 109.979889,253.142639 111.144043,251.978485 C112.329742,250.792786 114.186676,251.050842 114.186676,251.050842 C121.933777,257.789246 136.037567,263.34668 156.426697,263.34668 C176.815796,263.34668 190.919586,257.789246 198.666687,251.050842 C198.666687,251.050842 200.561707,250.346893 201.482269,251.267456 C203.25531,253.040497 202.079987,255.325928 202.079987,255.325928 L202.079987,255.325928 Z" id="usta" fill="#3B434F"></path>
                <path d="M142.34668,278.706665 L169.653351,278.706665 L169.653351,282.973328 L142.34668,282.973328 L142.34668,278.706665 L142.34668,278.706665 Z" id="-" fill="#3B434F"></path>
                <path d="M57.80722,161.313141 C57.795441,161.313812 56.759613,160.486603 54.803619,159.870758 C53.826019,159.563507 52.611023,159.31076 51.226166,159.248444 C50.88031,159.23288 50.524353,159.229187 50.160126,159.239532 C49.795898,159.249878 49.42337,159.274231 49.044708,159.314667 C48.287476,159.395569 47.505402,159.540955 46.718414,159.767334 C43.567261,160.672913 40.352692,162.874664 38.464783,167.419098 C37.51709,169.691437 36.891907,172.549713 36.726624,176.125916 C36.685272,177.019989 36.672638,177.958923 36.690765,178.944794 C36.708923,179.930664 36.757874,180.96347 36.83963,182.045288 C37.003052,184.208832 37.298157,186.568451 37.737854,189.139679 C37.728241,189.137146 37.327759,196.909668 40.106445,205.84082 C42.718689,214.572784 48.991516,225.299225 60.573334,228.36441 C59.241302,206.185028 59.199921,183.589905 57.80722,161.313141 L57.80722,161.313141 L57.80722,161.313141 Z" id="Shape-11-copy" fill="#FFFFFF"></path>
                <path d="M59.127869,162.207275 C59.127869,162.207275 38.951477,155.955597 39.66153,176.69809 C39.66153,176.69809 42.665436,206.77536 43.969879,209.547363 C43.969879,209.547363 51.893707,227.059387 64.970856,227.83548 C77.751862,228.593994 64.970856,227.83548 64.970856,227.83548 L65.129578,233.480011 C65.129578,233.480011 42.144928,230.53302 37.705597,204.04541 L34.201721,179.982697 C34.201721,179.982697 31.48111,148.138062 57.871185,156.234802 C83.580475,164.122681 57.871185,156.234802 57.871185,156.234802 L59.127869,162.207275" id="Shape-3" fill="#3B434F"></path>
                <path d="M52.468323,203.994812 C52.468323,203.994812 51.339172,204.848145 50.369171,204.848145 C49.39917,204.848145 48.283783,203.994812 48.283783,203.994812 L46.201569,183.012024 C46.201569,183.012024 49.074493,172.678558 61.265381,178.139496 L61.553558,184.139221 C61.553558,184.139221 50.85791,180.346008 51.079071,185.069427 C51.291962,189.615967 52.468323,203.994812 52.468323,203.994812 L52.468323,203.994812 Z" id="Shape-4" fill="#3B434F"></path>
                <path d="M254.813416,161.362122 C254.825256,161.362793 255.865631,160.536163 257.83017,159.920715 C258.812073,159.613678 260.032379,159.361115 261.423309,159.298828 C261.77066,159.283295 262.128174,159.279602 262.494019,159.289948 C262.859833,159.300262 263.233978,159.324615 263.614319,159.365021 C264.374847,159.445862 265.16037,159.591156 265.950806,159.817383 C269.115753,160.722351 272.344391,162.922607 274.24057,167.463959 C275.192413,169.734741 275.820343,172.591064 275.986328,176.164856 C276.027863,177.058319 276.040558,177.996613 276.022369,178.981812 C276.00412,179.96701 275.954956,180.999115 275.872833,182.0802 C275.70871,184.242279 275.412292,186.600311 274.970673,189.169769 C274.980347,189.167236 275.382568,196.934509 272.591705,205.859589 C269.968048,214.585632 263.667725,225.304779 252.035187,228.367889 C253.373047,206.203552 253.414612,183.623779 254.813416,161.362122 L254.813416,161.362122 L254.813416,161.362122 Z" id="Shape-11-copy_1" fill="#FFFFFF"></path>
                <path d="M252.482605,162.255676 C252.482605,162.255676 272.747375,156.00824 272.03421,176.736633 C272.03421,176.736633 269.017151,206.793488 267.70697,209.563599 C267.70697,209.563599 259.748444,227.063751 246.614044,227.839325 C233.777039,228.597321 246.614044,227.839325 246.614044,227.839325 L246.45462,233.480011 C246.45462,233.480011 269.539917,230.535034 273.998688,204.065399 L277.517914,180.019012 C277.517914,180.019012 280.250458,148.195984 253.744781,156.287231 C227.922913,164.169769 253.744781,156.287231 253.744781,156.287231 L252.482605,162.255676" id="Shape-3_1" fill="#3B434F"></path>
                <path d="M259.171326,204.014832 C259.171326,204.014832 260.30542,204.867584 261.279663,204.867584 C262.253906,204.867584 263.374176,204.014832 263.374176,204.014832 L265.465515,183.046295 C265.465515,183.046295 262.580017,172.719849 250.335724,178.177063 L250.046295,184.172729 C250.046295,184.172729 260.788788,180.38208 260.56665,185.102295 C260.352844,189.645752 259.171326,204.014832 259.171326,204.014832 L259.171326,204.014832 Z" id="Shape-4_1" fill="#3B434F"></path>
                <path d="M163.893341,202.333344 L165.386658,202.333344 C168.474121,206.526306 169.730225,212.969757 171.359985,218.546661 C171.865051,220.274963 171.375061,223.297974 170.933319,224.519989 C169.315552,228.995514 164.235687,228.915192 160.053345,230.919983 C158.930115,231.458435 158.094604,232.387817 156.640015,232.626678 C155.691711,231.791351 154.546722,231.627289 154.079987,230.279999 C152.927673,228.693268 154.412811,227.702393 155.573334,227.079987 C157.679565,225.950409 164.181488,224.837097 164.959991,222.813324 C165.923218,221.71759 165.282745,218.423157 164.959991,217.266663 C164.133392,214.304504 163.736633,211.831543 162.613342,209.160004 C161.867188,207.385498 160.557159,205.514496 161.333344,203.399994 C161.976532,203.12381 163.366638,202.809784 163.893341,202.333344 L163.893341,202.333344 Z" id="new_vector_shape_done" fill="#3B434F"></path>
                <path d="M104.799988,169.480011 L110.773346,169.480011 C114.072327,169.480011 116.746674,172.154358 116.746674,175.453339 C116.746674,178.752319 114.072327,181.426666 110.773346,181.426666 L104.799988,181.426666 C101.501007,181.426666 98.82666,178.752319 98.82666,175.453339 C98.82666,172.154358 101.501007,169.480011 104.799988,169.480011 L104.799988,169.480011 Z" id="Rounded-Rectangle-8" fill="#3B434F"></path>
                <path d="M202.079987,169.480011 L208.053345,169.480011 C211.352325,169.480011 214.026672,172.154358 214.026672,175.453339 C214.026672,178.752319 211.352325,181.426666 208.053345,181.426666 L202.079987,181.426666 C198.781006,181.426666 196.106659,178.752319 196.106659,175.453339 C196.106659,172.154358 198.781006,169.480011 202.079987,169.480011 L202.079987,169.480011 Z" id="Rounded-Rectangle-8-copy" fill="#3B434F"></path>
                <path d="M207.626678,197.640015 C213.5177,197.640015 218.293335,202.415649 218.293335,208.306671 C218.293335,214.197693 213.5177,218.973328 207.626678,218.973328 C201.735626,218.973328 196.960022,214.197693 196.960022,208.306671 C196.960022,202.415649 201.735626,197.640015 207.626678,197.640015 L207.626678,197.640015 Z" id="Ellipse-3" fill="#EDF1F1"></path>
                <path d="M104.373352,197.640015 C110.264374,197.640015 115.040009,202.415649 115.040009,208.306671 C115.040009,214.197693 110.264374,218.973328 104.373352,218.973328 C98.4823,218.973328 93.706696,214.197693 93.706696,208.306671 C93.706696,202.415649 98.4823,197.640015 104.373352,197.640015 L104.373352,197.640015 Z" id="Ellipse-3-copy" fill="#EDF1F1"></path>
                <path d="M179,150.610168 L181.471436,153.749329 L183.004822,155.694916 C183.004822,155.694916 210.155151,140.702881 229,158 L231.009155,158.984924 C231.009155,158.984924 226.366699,133.9086 185.727692,148.576416 C183.583557,149.15802 181.346405,149.829254 179,150.610168 L179,150.610168 Z" id="R" fill="#3B434F"></path>
                <path d="M132,150.627625 L129.528564,153.760254 L127.995178,155.701782 C127.995178,155.701782 100.844849,140.740936 82,158.002075 L79.990845,158.984955 C79.990845,158.984955 84.633301,133.960754 125.272308,148.598083 C127.416443,149.178497 129.653595,149.848328 132,150.627625 L132,150.627625 Z" id="L" fill="#3B434F"></path>
                <path d="M154.386688,379.906646 C131.52948,379.906646 113,361.377228 113,338.519989 C113,334.520538 113.578613,330.658355 114.637146,327 L114.706696,327 L119.09848,327 L126.653351,327 L126.653351,331.693329 L117.905334,331.693329 C117.491119,333.906494 117.266663,336.186371 117.266663,338.519989 C117.266663,359.020813 133.885895,375.639984 154.386688,375.639984 C174.887512,375.639984 191.506683,359.020813 191.506683,338.519989 C191.506683,336.186371 191.282257,333.906494 190.868011,331.693329 L182.120026,331.693329 L182.120026,327 L189.674866,327 L194.066681,327 L194.1362,327 C195.194733,330.658355 195.773346,334.520538 195.773346,338.519989 C195.773346,361.377228 177.243927,379.906646 154.386688,379.906646 L154.386688,379.906646 Z" id="Ellipse-4" fill="#3B434F"></path>
                <path d="M155,95.009369 L155,0.530792 C155.28479,0.528595 155.568024,0.519989 155.853333,0.519989 C215.706268,0.519989 264.226654,49.040405 264.226654,108.893341 L264.226654,143.723328 C264.204895,144.937103 264.203796,146.128418 264.226654,147.293335 C264.226654,147.293335 163.577911,120.073395 155,95.009369 L155,95.009369 Z" id="Rounded-Rectangle-6-path" fill="#3B434F"></path>
                <path d="M129.693329,338.007508 C129.693329,351.662995 140.772797,362.733002 154.440002,362.733002 C168.107208,362.733002 179.186676,351.662995 179.186676,338.007508 L179.186676,312.235321 C180.622833,311.798188 182.045471,311.323395 183.453339,310.810456 L183.453339,338.186615 C183.453339,354.335236 170.368134,367.426331 154.226685,367.426331 C138.085236,367.426331 125,354.335236 125,338.186615 L125,310 C126.545837,310.611237 128.111542,311.173432 129.693329,311.692414 L129.693329,338.007508 Z" id="neck" fill="#3B434F"></path>
                <path d="M46.773346,147.293335 C46.796204,146.128418 46.795105,144.937103 46.773346,143.723328 L46.773346,108.893341 C46.773346,49.040405 95.293732,0.519989 155.146667,0.519989 C155.431976,0.519989 155.71521,0.528595 156,0.530792 L156,95.009369 C147.422089,120.073395 46.773346,147.293335 46.773346,147.293335 L46.773346,147.293335 Z" id="Rounded-Rectangle-6-path" fill="#3B434F"></path>
                <path d="M15.517884,431.533325 L10,431.533325 L11.37735,408.003509 C14.066651,362.061279 50.264221,327 91.687348,327 L123.212342,327 L123.212342,331.693329 L94.202057,331.693329 C54.278687,331.693329 19.391663,365.441742 16.799713,409.663665 L15.842987,425.986664 L299.282501,425.986664 L298.752442,409.663665 C296.160492,365.441742 261.273468,331.693329 221.350067,331.693329 L182.519013,331.693329 L182.519013,327 L223.611756,327 C265.034882,327 301.232453,362.061279 303.921753,408.003509 L305.299103,431.533325 L300.034271,431.533325 L15.517884,431.533325 Z" id="Combined-Shape" fill="#3B434F"></path>
            </g>
        </g>
    </g>
</svg>