<?xml version="1.0" encoding="UTF-8" standalone="no"?>
<svg width="800px" height="600px" viewBox="0 0 800 600" version="1.1" xmlns="http://www.w3.org/2000/svg" xmlns:xlink="http://www.w3.org/1999/xlink" style="background: #FFFFFF;">
    <!-- Generator: Sketch 3.8.3 (29802) - http://www.bohemiancoding.com/sketch -->
    <title>News iOS9</title>
    <desc>Created with Sketch.</desc>
    <defs>
        <rect id="path-1" x="0.125" y="13" width="116" height="103"></rect>
        <filter x="-50%" y="-50%" width="200%" height="200%" filterUnits="objectBoundingBox" id="filter-2">
            <feOffset dx="-2" dy="1" in="SourceAlpha" result="shadowOffsetOuter1"></feOffset>
            <feGaussianBlur stdDeviation="2" in="shadowOffsetOuter1" result="shadowBlurOuter1"></feGaussianBlur>
            <feColorMatrix values="0 0 0 0 0   0 0 0 0 0   0 0 0 0 0  0 0 0 0.114526721 0" type="matrix" in="shadowBlurOuter1"></feColorMatrix>
        </filter>
        <path d="M13.125,109.856652 L13.125,2.00257411 C13.125,0.896582969 14.0137441,0 15.130276,0 L142.119724,0 C143.227207,0 144.125,0.900079779 144.125,2.0011767 L144.125,109.004912 C144.125,112.868193 140.983392,116 137.115678,116 L6.125,116 C6.125,116 13.125,114.921692 13.125,109.856652 Z" id="path-3"></path>
        <filter x="-50%" y="-50%" width="200%" height="200%" filterUnits="objectBoundingBox" id="filter-4">
            <feOffset dx="-2" dy="1" in="SourceAlpha" result="shadowOffsetOuter1"></feOffset>
            <feGaussianBlur stdDeviation="2" in="shadowOffsetOuter1" result="shadowBlurOuter1"></feGaussianBlur>
            <feColorMatrix values="0 0 0 0 0   0 0 0 0 0   0 0 0 0 0  0 0 0 0.219287817 0" type="matrix" in="shadowBlurOuter1"></feColorMatrix>
        </filter>
        <linearGradient x1="50%" y1="0%" x2="50%" y2="229.879613%" id="linearGradient-5">
            <stop stop-color="#BCBCBC" offset="0%"></stop>
            <stop stop-color="#CCE3EE" offset="100%"></stop>
        </linearGradient>
        <rect id="path-6" x="0" y="0" width="118" height="49"></rect>
    </defs>
    <g id="Page-1" stroke="none" stroke-width="1" fill="none" fill-rule="evenodd">
        <g id="News-iOS9">
            <g id="papper" transform="translate(332.000000, 228.000000)">
                <g id="Rectangle-2-Copy">
                    <use fill="black" fill-opacity="1" filter="url(#filter-2)" xlink:href="#path-1"></use>
                    <use fill="#FEFEFE" fill-rule="evenodd" xlink:href="#path-1"></use>
                </g>
                <g id="Rectangle-2">
                    <use fill="black" fill-opacity="1" filter="url(#filter-4)" xlink:href="#path-3"></use>
                    <use fill="#FEFEFE" fill-rule="evenodd" xlink:href="#path-3"></use>
                </g>
            </g>
            <g id="lines" transform="translate(352.000000, 242.000000)" stroke="#545454" stroke-width="2" stroke-linecap="square">
                <path d="M80.625,11 L116.680511,11" id="Line"></path>
                <path d="M80.625,1 L116.680511,1" id="Line-Copy"></path>
                <path d="M0.625,1 L36.6805115,1" id="Line-Copy-2"></path>
                <path d="M0.625,11 L36.6805115,11" id="Line-Copy-3"></path>
            </g>
            <g id="city" transform="translate(352.125000, 266.000000)">
                <mask id="mask-7" fill="white">
                    <use xlink:href="#path-6"></use>
                </mask>
                <use id="Mask" fill="url(#linearGradient-5)" xlink:href="#path-6"></use>
                <ellipse id="Oval-1" fill="#D8D8D8" mask="url(#mask-7)" cx="112.5" cy="31.5" rx="7.5" ry="7.5"></ellipse>
                <ellipse id="Oval-1-Copy" fill="#D8D8D8" mask="url(#mask-7)" cx="99.5" cy="31.5" rx="6.5" ry="6.5"></ellipse>
                <ellipse id="Oval-1-Copy-2" fill="#D8D8D8" mask="url(#mask-7)" cx="83.5" cy="27.5" rx="11.5" ry="11.5"></ellipse>
                <ellipse id="Oval-1-Copy-3" fill="#D8D8D8" mask="url(#mask-7)" cx="20.5" cy="29.5" rx="11.5" ry="11.5"></ellipse>
                <circle id="Oval-1-Copy-4" fill="#D8D8D8" mask="url(#mask-7)" cx="36" cy="23" r="9"></circle>
                <circle id="Oval-1-Copy-5" fill="#D8D8D8" mask="url(#mask-7)" cx="5" cy="33" r="9"></circle>
                <ellipse id="Oval-1-Copy-6" fill="#D8D8D8" mask="url(#mask-7)" cx="49" cy="27.5" rx="8.5" ry="8.5"></ellipse>
                <ellipse id="Oval-1-Copy-7" fill="#D8D8D8" mask="url(#mask-7)" cx="66" cy="32" rx="11" ry="11"></ellipse>
                <polygon id="Path-5" fill="#585858" mask="url(#mask-7)" points="0 28.8171293 1.33156433e-15 50 118 50 118 37.6889525 105.848079 37.6889525 105.848079 31.6555027 98.924714 31.6555027 98.924714 34.8916906 83.8426042 34.8916906 83.8426042 24.1176238 75.7226152 24.1176238 75.7226152 31.5656092 69.8174471 31.5656092 69.8174471 37.7437088 64.5422832 37.7437088 64.5422832 16 53.7794376 16 53.7794376 23.0227358 46.2729151 23.0227358 46.2729151 31.2681996 42.2378134 31.2681996 42.2378134 26.6041945 35.9796921 26.6041945 35.9796921 21.7039529 28.8629367 21.7039529 28.8629367 37.9116488 23.3877305 37.9116488 23.3877305 28.9559283"></polygon>
            </g>
            <g id="earth" transform="translate(398.000000, 234.000000)" fill="#545454">
                <path d="M28.0914,13.0666667 C27.6322,6.07786667 22.0471333,0.490933333 15.0583333,0.0317333333 L15.0583333,0 L14.125,0 L13.1916667,0 L13.1916667,0.0317333333 C6.20286667,0.490933333 0.615933333,6.07786667 0.156733333,13.0666667 L0.125,13.0666667 L0.125,14 L0.125,14.9333333 L0.156733333,14.9333333 C0.615933333,21.9221333 6.20286667,27.5072 13.1916667,27.9664 L13.1916667,28 L14.125,28 L15.0583333,28 L15.0583333,27.9664 C22.0471333,27.5072 27.6322,21.9221333 28.0914,14.9333333 L28.125,14.9333333 L28.125,14 L28.125,13.0666667 L28.0914,13.0666667 L28.0914,13.0666667 Z M8.889,3.052 C7.9874,4.2504 7.23886667,5.75306667 6.6938,7.46666667 L3.89753333,7.46666667 C5.1146,5.56826667 6.84313333,4.032 8.889,3.052 L8.889,3.052 Z M2.92126667,9.33333333 L6.20286667,9.33333333 C5.95273333,10.5130667 5.79406667,11.7656 5.74366667,13.0666667 L2.02713333,13.0666667 C2.12606667,11.7525333 2.43593333,10.4962667 2.92126667,9.33333333 L2.92126667,9.33333333 Z M2.02713333,14.9333333 L5.74366667,14.9333333 C5.79406667,16.2344 5.95273333,17.4869333 6.20286667,18.6666667 L2.92126667,18.6666667 C2.43593333,17.5037333 2.12606667,16.2474667 2.02713333,14.9333333 L2.02713333,14.9333333 Z M3.89753333,20.5333333 L6.69193333,20.5333333 C7.237,22.2469333 7.98553333,23.7496 8.889,24.948 C6.84313333,23.968 5.1146,22.4336 3.89753333,20.5333333 L3.89753333,20.5333333 Z M13.1916667,26.0138667 C11.2727333,25.5005333 9.62073333,23.4397333 8.61833333,20.5333333 L13.1916667,20.5333333 L13.1916667,26.0138667 L13.1916667,26.0138667 Z M13.1916667,18.6666667 L8.0938,18.6666667 C7.8306,17.5037333 7.66446667,16.2474667 7.61033333,14.9333333 L13.1916667,14.9333333 L13.1916667,18.6666667 L13.1916667,18.6666667 Z M13.1916667,13.0666667 L7.61033333,13.0666667 C7.66446667,11.7525333 7.8306,10.4962667 8.0938,9.33333333 L13.1916667,9.33333333 L13.1916667,13.0666667 L13.1916667,13.0666667 Z M13.1916667,7.46666667 L8.61833333,7.46666667 C9.62073333,4.56026667 11.2727333,2.49946667 13.1916667,1.988 L13.1916667,7.46666667 L13.1916667,7.46666667 Z M24.3524667,7.46666667 L21.5599333,7.46666667 C21.013,5.75306667 20.2663333,4.2504 19.361,3.052 C21.405,4.032 23.1354,5.56826667 24.3524667,7.46666667 L24.3524667,7.46666667 Z M15.0583333,1.988 C16.9754,2.49946667 18.6292667,4.56026667 19.6316667,7.46666667 L15.0583333,7.46666667 L15.0583333,1.988 L15.0583333,1.988 Z M15.0583333,9.33333333 L20.1543333,9.33333333 C20.4194,10.4962667 20.5818,11.7525333 20.6396667,13.0666667 L15.0583333,13.0666667 L15.0583333,9.33333333 L15.0583333,9.33333333 Z M15.0583333,14.9333333 L20.6396667,14.9333333 C20.5855333,16.2474667 20.4194,17.5037333 20.1543333,18.6666667 L15.0583333,18.6666667 L15.0583333,14.9333333 L15.0583333,14.9333333 Z M15.0583333,26.0138667 L15.0583333,20.5333333 L19.6316667,20.5333333 C18.6292667,23.4397333 16.9754,25.5005333 15.0583333,26.0138667 L15.0583333,26.0138667 Z M19.361,24.948 C20.2626,23.7477333 21.013,22.2469333 21.5599333,20.5333333 L24.3524667,20.5333333 C23.1354,22.4336 21.405,23.968 19.361,24.948 L19.361,24.948 Z M25.3287333,18.6666667 L22.0471333,18.6666667 C22.2972667,17.4869333 22.4559333,16.2344 22.5063333,14.9333333 L26.221,14.9333333 C26.1239333,16.2474667 25.8140667,17.5037333 25.3287333,18.6666667 L25.3287333,18.6666667 Z M22.5063333,13.0666667 C22.4559333,11.7656 22.2972667,10.5130667 22.0471333,9.33333333 L25.3287333,9.33333333 C25.8140667,10.4962667 26.1239333,11.7525333 26.2228667,13.0666667 L22.5063333,13.0666667 L22.5063333,13.0666667 Z" id="Shape"></path>
            </g>
            <g id="articles" transform="translate(353.000000, 323.000000)" fill="#BEBCBF">
                <rect id="Rectangle-4" x="0.125" y="0" width="117" height="4" rx="2"></rect>
                <rect id="Rectangle-4-Copy" x="0.125" y="11" width="117" height="4" rx="2"></rect>
            </g>
        </g>
    </g>
</svg>