<?xml version="1.0" encoding="UTF-8" standalone="no"?>
<svg width="296px" height="430px" viewBox="0 0 296 430" version="1.1" xmlns="http://www.w3.org/2000/svg" xmlns:xlink="http://www.w3.org/1999/xlink">
    <!-- Generator: Sketch 3.8.3 (29802) - http://www.bohemiancoding.com/sketch -->
    <title>users-7</title>
    <desc>Created with Sketch.</desc>
    <defs></defs>
    <g id="Page-1" stroke="none" stroke-width="1" fill="none" fill-rule="evenodd">
        <g id="users-7">
            <g id="svg5448" transform="translate(0.000000, 34.000000)">
                <path d="M3.359985,392 C3.359985,392 -3.255005,302.01178 81.440002,293.613342 L119.41333,293.613342 L119.41333,276.119995 C119.41333,276.119995 146.125,287.593323 173.17334,277.399994 L174.026672,293.613342 L218.399994,293.613342 C218.399994,293.613342 294.385406,296.597595 290.933319,392.853333 L3.359985,392 L3.359985,392 Z" id="body-bg-flat-copy" fill="#FFFFFF"></path>
                <path d="M290.675262,395.58667 L290.675262,395.58667 L6.158875,395.58667 L6.158875,395.58667 L0.640991,395.58667 L2.018341,372.056854 C4.707642,326.114624 40.905212,291.053345 82.328339,291.053345 L113.853333,291.053345 L113.853333,295.746674 L84.843048,295.746674 C44.919678,295.746674 10.032654,329.495087 7.440704,373.71701 L6.483978,390.040009 L289.923492,390.040009 L289.393433,373.71701 C286.801483,329.495087 251.914459,295.746674 211.991058,295.746674 L173.160004,295.746674 L173.160004,291.053345 L214.252747,291.053345 C255.675873,291.053345 291.873444,326.114624 294.562744,372.056854 L295.940094,395.58667 L290.675262,395.58667 L290.675262,395.58667 Z" id="Rounded-Rectangle-13" fill="#3B434F"></path>
                <path d="M143.720001,343.959991 C120.862793,343.959991 102.333313,325.430573 102.333313,302.573334 C102.333313,298.573883 102.911926,294.7117 103.970459,291.053345 L104.040009,291.053345 L108.431793,291.053345 L115.986664,291.053345 L115.986664,295.746674 L107.238647,295.746674 C106.824432,297.959839 106.599976,300.239716 106.599976,302.573334 C106.599976,323.074158 123.219208,339.693329 143.720001,339.693329 C164.220825,339.693329 180.839996,323.074158 180.839996,302.573334 C180.839996,300.239716 180.61557,297.959839 180.201324,295.746674 L171.453339,295.746674 L171.453339,291.053345 L179.008179,291.053345 L183.399994,291.053345 L183.469513,291.053345 C184.528046,294.7117 185.106659,298.573883 185.106659,302.573334 C185.106659,325.430573 166.57724,343.959991 143.720001,343.959991 L143.720001,343.959991 Z" id="Ellipse-4" fill="#3B434F"></path>
                <path d="M119.399994,274.146088 L119.399994,300.461182 C119.399994,314.116669 130.479462,325.186676 144.146667,325.186676 C157.813873,325.186676 168.893341,314.116669 168.893341,300.461182 L168.893341,274.688995 C170.329498,274.251862 171.752136,273.777069 173.160004,273.26413 L173.160004,300.640289 C173.160004,316.78891 160.074799,329.880005 143.93335,329.880005 C127.791901,329.880005 114.706665,316.78891 114.706665,300.640289 L114.706665,272.453674 C116.252502,273.064911 117.818207,273.627106 119.399994,274.146088 L119.399994,274.146088 Z" id="neck" fill="#3B434F"></path>
                <path d="M145.214661,6.466644 C198.292542,6.466644 240.186951,56.067871 238.824738,115.664948 L237.376923,179.006104 C236.093597,235.152466 194.845428,279.533325 145.214661,279.533325 C95.583893,279.533325 54.335724,235.152466 53.052399,179.006104 L51.604584,115.664948 C50.242401,56.067871 92.13678,6.466644 145.214661,6.466644 L145.214661,6.466644 Z" id="2-copy-5" fill="#FFFFFF"></path>
                <path d="M243.089386,113.701141 L241.572327,179.615509 C240.227631,238.042816 197.006287,284.226654 145.001404,284.226654 C92.99649,284.226654 49.775177,238.042816 48.43045,179.615509 L46.913361,113.701141 C45.486023,51.682922 89.384491,0.06665 145.001404,0.06665 C200.618317,0.06665 244.516754,51.682922 243.089386,113.701141 L243.089386,113.701141 Z M144.7883,6.893311 C92.436035,6.893311 51.11438,56.107025 52.457916,115.238495 L53.885956,178.084808 C55.151733,233.792511 95.836029,277.82666 144.7883,277.82666 C193.74057,277.82666 234.424835,233.792511 235.690613,178.084808 L237.118622,115.238495 C238.462219,56.107025 197.140564,6.893311 144.7883,6.893311 L144.7883,6.893311 Z" id="2-line" fill="#3B434F"></path>
                <path d="M240.426666,124.65332 L236.160004,194.626678 C236.160004,194.626678 217.209778,275.397614 144,284.961365 L144,285.079987 C143.85611,285.062408 143.716797,285.038818 143.573334,285.020691 C143.429871,285.038818 143.290558,285.062408 143.146667,285.079987 L143.146667,284.961365 C69.93692,275.397614 50.986664,194.626678 50.986664,194.626678 L46.720001,124.65332 C65.717773,208.980011 81.706665,214.253357 81.706665,214.253357 C78.4711,188.68222 104.746674,191.213348 104.746674,191.213348 C120.760803,193.918427 133.509155,195.225616 143.573334,195.714325 C153.637543,195.225616 166.385864,193.918427 182.399994,191.213348 C182.399994,191.213348 208.675537,188.68222 205.440002,214.253357 C205.440002,214.253357 221.428894,208.980011 240.426666,124.65332 L240.426666,124.65332 Z M192.983093,222.926392 C191.741058,207.884766 182.670868,209.160217 182.670868,209.160217 C166.546234,213.904846 153.888733,216.540649 144,217.880249 L144,217.781921 C134.180511,216.453247 121.611664,213.839081 105.600006,209.133331 C105.600006,209.133331 96.593323,207.868317 95.359985,222.786682 C95.359985,222.786682 91.743317,237.733337 103.893341,244.119995 L119.253326,260.333344 C119.253326,260.333344 129.75,263.660004 129.493347,250.946655 C129.493347,250.946655 128.424988,241.464996 134.613342,239.853333 L144,239.853333 L144,240.134094 L153.452881,240.134094 C159.684875,241.759094 158.609009,251.319122 158.609009,251.319122 C158.350525,264.137543 168.921204,260.783356 168.921204,260.783356 L184.389557,244.436035 C196.625275,237.996582 192.983093,222.926392 192.983093,222.926392 L192.983093,222.926392 Z" id="1-copy-4" fill="#3B434F" opacity="0.058824"></path>
                <path d="M191.079987,217.325928 C183.324768,224.059753 165.808014,230.466644 145.426697,230.466644 C125.045349,230.466644 107.528595,224.059753 99.773346,217.325928 C99.773346,217.325928 98.979889,215.142639 100.144043,213.978485 C101.329742,212.792786 103.186676,213.050842 103.186676,213.050842 C110.933777,219.789246 125.037567,225.34668 145.426697,225.34668 C165.815796,225.34668 179.919586,219.789246 187.666687,213.050842 C187.666687,213.050842 189.561707,212.346893 190.482269,213.267456 C192.25531,215.040497 191.079987,217.325928 191.079987,217.325928 L191.079987,217.325928 Z" id="usta" fill="#3B434F"></path>
                <path d="M131.34668,240.706665 L158.653351,240.706665 L158.653351,244.973328 L131.34668,244.973328 L131.34668,240.706665 L131.34668,240.706665 Z" id="-" fill="#3B434F"></path>
                <path d="M46.80722,123.313141 C46.795441,123.313812 45.759613,122.486603 43.803619,121.870758 C42.826019,121.563507 41.611023,121.31076 40.226166,121.248444 C39.88031,121.23288 39.524353,121.229187 39.160126,121.239532 C38.795898,121.249878 38.42337,121.274231 38.044708,121.314667 C37.287476,121.395569 36.505402,121.540955 35.718414,121.767334 C32.567261,122.672913 29.352692,124.874664 27.464783,129.419098 C26.51709,131.691437 25.891907,134.549713 25.726624,138.125916 C25.685272,139.019989 25.672638,139.958923 25.690765,140.944794 C25.708923,141.930664 25.757874,142.96347 25.83963,144.045288 C26.003052,146.208832 26.298157,148.568451 26.737854,151.139679 C26.728241,151.137146 26.327759,158.909668 29.106445,167.84082 C31.718689,176.572784 37.991516,187.299225 49.573334,190.36441 C48.241302,168.185028 48.199921,145.589905 46.80722,123.313141 L46.80722,123.313141 L46.80722,123.313141 Z" id="Shape-11-copy" fill="#FFFFFF"></path>
                <path d="M48.127869,124.207275 C48.127869,124.207275 27.951477,117.955597 28.66153,138.69809 C28.66153,138.69809 31.665436,168.77536 32.969879,171.547363 C32.969879,171.547363 40.893707,189.059387 53.970856,189.83548 C66.751862,190.593994 53.970856,189.83548 53.970856,189.83548 L54.129578,195.480011 C54.129578,195.480011 31.144928,192.53302 26.705597,166.04541 L23.201721,141.982697 C23.201721,141.982697 20.48111,110.138062 46.871185,118.234802 C72.580475,126.122681 46.871185,118.234802 46.871185,118.234802 L48.127869,124.207275" id="Shape-3" fill="#3B434F"></path>
                <path d="M41.468323,165.994812 C41.468323,165.994812 40.339172,166.848145 39.369171,166.848145 C38.39917,166.848145 37.283783,165.994812 37.283783,165.994812 L35.201569,145.012024 C35.201569,145.012024 38.074493,134.678558 50.265381,140.139496 L50.553558,146.139221 C50.553558,146.139221 39.85791,142.346008 40.079071,147.069427 C40.291962,151.615967 41.468323,165.994812 41.468323,165.994812 L41.468323,165.994812 Z" id="Shape-4" fill="#3B434F"></path>
                <path d="M242.813416,123.362122 C242.825256,123.362793 243.865631,122.536163 245.83017,121.920715 C246.812073,121.613678 248.032379,121.361115 249.423309,121.298828 C249.77066,121.283295 250.128174,121.279602 250.494019,121.289948 C250.859833,121.300262 251.233978,121.324615 251.614319,121.365021 C252.374847,121.445862 253.16037,121.591156 253.950806,121.817383 C257.115753,122.722351 260.344391,124.922607 262.24057,129.463959 C263.192413,131.734741 263.820343,134.591064 263.986328,138.164856 C264.027863,139.058319 264.040558,139.996613 264.022369,140.981812 C264.00412,141.96701 263.954956,142.999115 263.872833,144.0802 C263.70871,146.242279 263.412292,148.600311 262.970673,151.169769 C262.980347,151.167236 263.382568,158.934509 260.591705,167.859589 C257.968048,176.585632 251.667725,187.304779 240.035187,190.367889 C241.373047,168.203552 241.414612,145.623779 242.813416,123.362122 L242.813416,123.362122 L242.813416,123.362122 Z" id="Shape-11-copy_1" fill="#FFFFFF"></path>
                <path d="M241.482605,124.255676 C241.482605,124.255676 261.747375,118.00824 261.03421,138.736633 C261.03421,138.736633 258.017151,168.793488 256.70697,171.563599 C256.70697,171.563599 248.748444,189.063751 235.614044,189.839325 C222.777039,190.597321 235.614044,189.839325 235.614044,189.839325 L235.45462,195.480011 C235.45462,195.480011 258.539917,192.535034 262.998688,166.065399 L266.517914,142.019012 C266.517914,142.019012 269.250458,110.195984 242.744781,118.287231 C216.922913,126.169769 242.744781,118.287231 242.744781,118.287231 L241.482605,124.255676" id="Shape-3_1" fill="#3B434F"></path>
                <path d="M248.171326,166.014832 C248.171326,166.014832 249.30542,166.867584 250.279663,166.867584 C251.253906,166.867584 252.374176,166.014832 252.374176,166.014832 L254.465515,145.046295 C254.465515,145.046295 251.580017,134.719849 239.335724,140.177063 L239.046295,146.172729 C239.046295,146.172729 249.788788,142.38208 249.56665,147.102295 C249.352844,151.645752 248.171326,166.014832 248.171326,166.014832 L248.171326,166.014832 Z" id="Shape-4_1" fill="#3B434F"></path>
                <path d="M152.893341,164.333344 L154.386658,164.333344 C157.474121,168.526306 158.730225,174.969757 160.359985,180.546661 C160.865051,182.274963 160.375061,185.297974 159.933319,186.519989 C158.315552,190.995514 153.235687,190.915192 149.053345,192.919983 C147.930115,193.458435 147.094604,194.387817 145.640015,194.626678 C144.691711,193.791351 143.546722,193.627289 143.079987,192.279999 C141.927673,190.693268 143.412811,189.702393 144.573334,189.079987 C146.679565,187.950409 153.181488,186.837097 153.959991,184.813324 C154.923218,183.71759 154.282745,180.423157 153.959991,179.266663 C153.133392,176.304504 152.736633,173.831543 151.613342,171.160004 C150.867188,169.385498 149.557159,167.514496 150.333344,165.399994 C150.976532,165.12381 152.366638,164.809784 152.893341,164.333344 L152.893341,164.333344 Z" id="new_vector_shape_done" fill="#3B434F"></path>
                <path d="M93.799988,131.480011 L99.773346,131.480011 C103.072327,131.480011 105.746674,134.154358 105.746674,137.453339 C105.746674,140.752319 103.072327,143.426666 99.773346,143.426666 L93.799988,143.426666 C90.501007,143.426666 87.82666,140.752319 87.82666,137.453339 C87.82666,134.154358 90.501007,131.480011 93.799988,131.480011 L93.799988,131.480011 Z" id="Rounded-Rectangle-8" fill="#3B434F"></path>
                <path d="M191.079987,131.480011 L197.053345,131.480011 C200.352325,131.480011 203.026672,134.154358 203.026672,137.453339 C203.026672,140.752319 200.352325,143.426666 197.053345,143.426666 L191.079987,143.426666 C187.781006,143.426666 185.106659,140.752319 185.106659,137.453339 C185.106659,134.154358 187.781006,131.480011 191.079987,131.480011 L191.079987,131.480011 Z" id="Rounded-Rectangle-8-copy" fill="#3B434F"></path>
                <path d="M196.626678,159.640015 C202.5177,159.640015 207.293335,164.415649 207.293335,170.306671 C207.293335,176.197693 202.5177,180.973328 196.626678,180.973328 C190.735626,180.973328 185.960022,176.197693 185.960022,170.306671 C185.960022,164.415649 190.735626,159.640015 196.626678,159.640015 L196.626678,159.640015 Z" id="Ellipse-3" fill="#EDF1F1"></path>
                <path d="M93.373352,159.640015 C99.264374,159.640015 104.040009,164.415649 104.040009,170.306671 C104.040009,176.197693 99.264374,180.973328 93.373352,180.973328 C87.4823,180.973328 82.706696,176.197693 82.706696,170.306671 C82.706696,164.415649 87.4823,159.640015 93.373352,159.640015 L93.373352,159.640015 Z" id="Ellipse-3-copy" fill="#EDF1F1"></path>
                <path d="M172,115 C172,115 197.987244,100.0737 215.119781,118.927032 L223.946655,118.675201 C223.946655,118.675201 212.938019,94.643188 167.746674,109.806366 L172,116" id="R-copy" fill="#3B434F"></path>
                <path d="M117.764191,115.097351 C117.764191,115.097351 91.863647,100.303131 74.7883,118.989624 L65.990875,118.740021 C65.990875,118.740021 76.962769,94.920685 122.003326,109.949677 L117.764191,116.088501" id="R-copy-3" fill="#3B434F"></path>
            </g>
            <path d="M73.0631541,99.328002 C83.3919501,85.105255 92.3300301,81.70343 96.9691601,81.268371 C101.60829,80.833343 138.140974,91.632659 188.324201,79.261718 C188.324201,79.261718 208.111341,78.472015 216.499128,98.324707 C216.499128,98.324707 234.183485,129.962371 236.989973,161.533416 L240.405104,161.533416 C240.405104,161.533416 247.642286,106.190521 244.674085,73.241851 C241.705793,40.293212 198.569624,24.079528 198.569624,24.079528 L207.961256,17.056304 C207.961256,17.056304 186.034651,10.278076 177.224989,14.046417 L184.05525,1.42108547e-14 C184.05525,1.42108547e-14 139.805158,0.088195 114.898634,20.066253 L115.752424,10.033111 C115.752424,10.033111 27.9625991,23.495575 46.5958081,163.540039 L50.8647291,165.546661 C50.8647291,165.546661 62.7343581,113.55075 73.0631541,99.328002 Z" id="Shape-7" fill="#3B434F"></path>
        </g>
    </g>
</svg>