<?xml version="1.0" encoding="UTF-8" standalone="no"?>
<svg width="296px" height="411px" viewBox="0 0 296 411" version="1.1" xmlns="http://www.w3.org/2000/svg" xmlns:xlink="http://www.w3.org/1999/xlink">
    <!-- Generator: Sketch 3.8.3 (29802) - http://www.bohemiancoding.com/sketch -->
    <title>svg4155</title>
    <desc>Created with Sketch.</desc>
    <defs></defs>
    <g id="Page-1" stroke="none" stroke-width="1" fill="none" fill-rule="evenodd">
        <g id="svg4155">
            <path d="M3,409 C3,409 -7.30188,318.688873 81.440002,308.613342 L119.41333,308.613342 L119.41333,291.119995 C119.41333,291.119995 146.125,302.593323 173.17334,292.399994 L174.026672,308.613342 L218.399994,308.613342 C218.399994,308.613342 295.673462,316.327606 291,409 L3,409 L3,409 Z" id="body-bg-flat" fill="#FFFFFF"></path>
            <path d="M290.261932,410.58667 L290.261932,410.58667 L5.745544,410.58667 L5.745544,410.58667 L0.227661,410.58667 L1.605011,387.056854 C4.294312,341.114624 40.491882,306.053345 81.915009,306.053345 L113.440002,306.053345 L113.440002,310.746674 L84.429718,310.746674 C44.506348,310.746674 9.619324,344.495087 7.027374,388.71701 L6.070648,405.040009 L289.510162,405.040009 L288.980103,388.71701 C286.388153,344.495087 251.501129,310.746674 211.577728,310.746674 L172.746674,310.746674 L172.746674,306.053345 L213.839417,306.053345 C255.262543,306.053345 291.460114,341.114624 294.149414,387.056854 L295.526764,410.58667 L290.261932,410.58667 L290.261932,410.58667 Z" id="Rounded-Rectangle-13-copy" fill="#3B434F"></path>
            <path d="M123.679993,289.146088 L123.679993,315.461182 C123.679993,329.116669 134.75946,340.186676 148.426666,340.186676 C162.093872,340.186676 173.17334,329.116669 173.17334,315.461182 L173.17334,289.688995 C174.609497,289.251862 176.032135,288.777069 177.440002,288.26413 L177.440002,315.640289 C177.440002,331.78891 164.354797,344.880005 148.213348,344.880005 C132.071899,344.880005 118.986664,331.78891 118.986664,315.640289 L118.986664,287.453674 C120.532501,288.064911 122.098206,288.627106 123.679993,289.146088 L123.679993,289.146088 Z" id="neck-copy-5" fill="#3B434F"></path>
            <path d="M118.773346,339.76001 C120.304993,339.76001 121.546661,341.001648 121.546661,342.533325 L121.546661,384.346649 C121.546661,385.878326 120.304993,387.119995 118.773346,387.119995 C117.241669,387.119995 116,385.878326 116,384.346649 L116,342.533325 C116,341.001648 117.241669,339.76001 118.773346,339.76001 L118.773346,339.76001 Z" id="Rounded-Rectangle-14" fill="#3B434F"></path>
            <path d="M177.013336,339.333344 C178.662811,339.333344 180,340.670502 180,342.320007 L180,368.346649 C180,369.996155 178.662811,371.333344 177.013336,371.333344 C175.363831,371.333344 174.026672,369.996155 174.026672,368.346649 L174.026672,342.320007 C174.026672,340.670502 175.363831,339.333344 177.013336,339.333344 L177.013336,339.333344 Z" id="Rounded-Rectangle-15" fill="#3B434F"></path>
            <path d="M118.773346,384.133331 C119.598083,384.133331 120.266663,384.80191 120.266663,385.626678 L120.266663,396.293335 C120.266663,397.118073 119.598083,397.786652 118.773346,397.786652 C117.948578,397.786652 117.279999,397.118073 117.279999,396.293335 L117.279999,385.626678 C117.279999,384.80191 117.948578,384.133331 118.773346,384.133331 L118.773346,384.133331 Z" id="Rounded-Rectangle-16" fill="#3B434F"></path>
            <path d="M177.226654,368.346649 C178.051422,368.346649 178.720001,369.015259 178.720001,369.839996 L178.720001,380.506653 C178.720001,381.331421 178.051422,382 177.226654,382 C176.401917,382 175.733337,381.331421 175.733337,380.506653 L175.733337,369.839996 C175.733337,369.015259 176.401917,368.346649 177.226654,368.346649 L177.226654,368.346649 Z" id="Rounded-Rectangle-16-copy" fill="#3B434F"></path>
            <path d="M102.765503,278.646149 L75.741852,284.851379 C75.741852,284.851379 42.648834,292.347412 64.665649,314.65094 C86.682495,336.954468 143.306671,340.893341 143.306671,340.893341 C143.306671,340.893341 128.335297,333.802094 121.973328,323.82666 L119.839996,287.986664 L102.765503,278.646149 L102.765503,278.646149 Z" id="Shape-1-copy" fill="#F5F3EF"></path>
            <path d="M144.160004,343.026672 C142.483246,345.148926 95.333374,343.689697 62.666656,315.293335 C39.014038,294.732666 74.613342,282.866669 74.613342,282.866669 L100.640015,276.893341 L123.253326,288.41333 L124.959991,322.973328 C134.479462,337.899689 146.859344,339.610107 144.160004,343.026672 L144.160004,343.026672 Z M120.693329,324.679993 L118.133331,288.41333 L104.480011,280.733337 L78.453339,287.133331 C78.453339,287.133331 46.928406,293.59787 66.933319,312.306671 C88.522644,332.497131 128.461578,337.915588 132.640015,337.480011 C136.970764,337.028503 130.212799,339.606384 120.693329,324.679993 L120.693329,324.679993 Z" id="Shape-1-copy-2" fill="#3B434F"></path>
            <path d="M194.059265,279.651398 L221.098938,285.875214 C221.098938,285.875214 254.211548,293.393677 232.181702,315.764008 C210.151794,338.134338 153.494049,342.084991 153.494049,342.084991 C153.494049,342.084991 168.474335,334.972534 174.840027,324.967224 L176.97464,289.019897 L194.059265,279.651398 L194.059265,279.651398 Z" id="Shape-1-copy-4" fill="#F5F3EF"></path>
            <path d="M152.640228,343.798035 C154.317963,345.926666 201.495789,344.463074 234.181854,315.981659 C257.848511,295.359406 222.228119,283.457886 222.228119,283.457886 L196.186005,277.466675 L173.559296,289.021149 L171.851593,323.684662 C162.326508,338.655731 149.939301,340.371246 152.640228,343.798035 L152.640228,343.798035 Z M176.120789,325.396423 L178.682312,289.021149 L192.34375,281.318176 L218.385834,287.737335 C218.385834,287.737335 249.929474,294.221222 229.912659,312.986053 C208.310547,333.237 168.347931,338.671661 164.167053,338.234772 C159.83371,337.781921 166.595703,340.367493 176.120789,325.396423 L176.120789,325.396423 Z" id="Shape-1-copy-6" fill="#3B434F"></path>
            <path d="M150.214661,21.466644 C203.292542,21.466644 245.186951,71.067871 243.824738,130.664948 L242.376923,194.006104 C241.093597,250.152466 199.845428,294.533325 150.214661,294.533325 C100.583893,294.533325 59.335724,250.152466 58.052399,194.006104 L56.604584,130.664948 C55.242401,71.067871 97.13678,21.466644 150.214661,21.466644 L150.214661,21.466644 Z" id="2-copy-5" fill="#FFFFFF"></path>
            <path d="M248.089386,128.701141 L246.572327,194.615509 C245.227631,253.042816 202.006287,299.226654 150.001404,299.226654 C97.99649,299.226654 54.775177,253.042816 53.43045,194.615509 L51.913361,128.701141 C50.486023,66.682922 94.384491,15.06665 150.001404,15.06665 C205.618317,15.06665 249.516754,66.682922 248.089386,128.701141 L248.089386,128.701141 Z M149.7883,21.893311 C97.436035,21.893311 56.11438,71.107025 57.457916,130.238495 L58.885956,193.084808 C60.151733,248.792511 100.836029,292.82666 149.7883,292.82666 C198.74057,292.82666 239.424835,248.792511 240.690613,193.084808 L242.118622,130.238495 C243.462219,71.107025 202.140564,21.893311 149.7883,21.893311 L149.7883,21.893311 Z" id="2-line" fill="#3B434F"></path>
            <path d="M239.524475,231.924896 C238.262268,237.894379 221.677521,292.022858 224.678192,268.592072 C227.678833,245.161285 195.858887,289.88269 195.858887,289.88269 C189.979034,295.924286 166.16626,309.990509 166.16626,309.990509 L166.16626,304.076447 L148.700012,311.17334 L140.84021,304.076447 L139.966888,311.17334 C137.628082,307.708069 90.18811,275.688965 90.18811,275.688965 C90.18811,275.688965 98.331757,290.182098 91.934753,282.785828 C91.70636,282.521759 91.471985,282.238861 91.232422,281.938812 C84.761444,273.834503 74.468475,253.215515 74.468475,253.215515 L72.721863,267.409271 C57.287445,237.406464 57.87558,199.988953 57.87558,199.988953 L55.279999,121.847656 L62.26651,121.847656 L64.862061,177.515503 L76.215118,196.440491 C83.556396,207.172668 103.287781,202.354553 103.287781,202.354553 C160.309631,241.919647 196.732208,199.988953 196.732208,199.988953 C196.732208,199.988953 221.434631,205.470551 229.044739,202.354553 C236.654816,199.238586 237.753479,121.73764 237.753479,121.73764 L243.866669,121.73764 C243.866669,121.73764 240.786682,225.955383 239.524475,231.924896 L239.524475,231.924896 Z M198.573212,237.926392 C197.319824,222.884766 188.166809,224.160217 188.166809,224.160217 C171.894897,228.904846 159.121826,231.540649 149.142761,232.880249 L149.142761,232.781921 C139.233612,231.453247 126.549988,228.839081 110.39209,224.133331 C110.39209,224.133331 101.303162,222.868317 100.058563,237.786682 C100.058563,237.786682 96.408844,249.320007 108.66983,255.706665 L124.170105,264.240021 C124.170105,264.240021 134.762634,267.566681 134.503632,254.853333 C134.503632,254.853333 133.425507,253.051666 139.67038,251.440002 L149.142761,251.440002 L149.142761,251.720764 L158.681976,251.720764 C164.970886,253.345764 163.885193,255.2258 163.885193,255.2258 C163.624359,268.04422 174.291565,264.690033 174.291565,264.690033 L189.901184,256.022705 C202.248627,249.583252 198.573212,237.926392 198.573212,237.926392 L198.573212,237.926392 Z" id="Shape-1" fill="#3B434F"></path>
            <path d="M196.079987,232.325928 C188.324768,239.059753 170.808014,245.466644 150.426697,245.466644 C130.045349,245.466644 112.528595,239.059753 104.773346,232.325928 C104.773346,232.325928 103.979889,230.142639 105.144043,228.978485 C106.329742,227.792786 108.186676,228.050842 108.186676,228.050842 C115.933777,234.789246 130.037567,240.34668 150.426697,240.34668 C170.815796,240.34668 184.919586,234.789246 192.666687,228.050842 C192.666687,228.050842 194.561707,227.346893 195.482269,228.267456 C197.25531,230.040497 196.079987,232.325928 196.079987,232.325928 L196.079987,232.325928 Z" id="usta" fill="#3B434F"></path>
            <path d="M136.34668,255.706665 L163.653351,255.706665 L163.653351,259.973328 L136.34668,259.973328 L136.34668,255.706665 L136.34668,255.706665 Z" id="-" fill="#3B434F"></path>
            <path d="M51.80722,138.313141 C51.795441,138.313812 50.759613,137.486603 48.803619,136.870758 C47.826019,136.563507 46.611023,136.31076 45.226166,136.248444 C44.88031,136.23288 44.524353,136.229187 44.160126,136.239532 C43.795898,136.249878 43.42337,136.274231 43.044708,136.314667 C42.287476,136.395569 41.505402,136.540955 40.718414,136.767334 C37.567261,137.672913 34.352692,139.874664 32.464783,144.419098 C31.51709,146.691437 30.891907,149.549713 30.726624,153.125916 C30.685272,154.019989 30.672638,154.958923 30.690765,155.944794 C30.708923,156.930664 30.757874,157.96347 30.83963,159.045288 C31.003052,161.208832 31.298157,163.568451 31.737854,166.139679 C31.728241,166.137146 31.327759,173.909668 34.106445,182.84082 C36.718689,191.572784 42.991516,202.299225 54.573334,205.36441 C53.241302,183.185028 53.199921,160.589905 51.80722,138.313141 L51.80722,138.313141 L51.80722,138.313141 Z" id="Shape-11-copy" fill="#FFFFFF"></path>
            <path d="M53.127869,139.207275 C53.127869,139.207275 32.951477,132.955597 33.66153,153.69809 C33.66153,153.69809 36.665436,183.77536 37.969879,186.547363 C37.969879,186.547363 45.893707,204.059387 58.970856,204.83548 C71.751862,205.593994 58.970856,204.83548 58.970856,204.83548 L59.129578,210.480011 C59.129578,210.480011 36.144928,207.53302 31.705597,181.04541 L28.201721,156.982697 C28.201721,156.982697 25.48111,125.138062 51.871185,133.234802 C77.580475,141.122681 51.871185,133.234802 51.871185,133.234802 L53.127869,139.207275" id="Shape-3" fill="#3B434F"></path>
            <path d="M46.468323,180.994812 C46.468323,180.994812 45.339172,181.848145 44.369171,181.848145 C43.39917,181.848145 42.283783,180.994812 42.283783,180.994812 L40.201569,160.012024 C40.201569,160.012024 43.074493,149.678558 55.265381,155.139496 L55.553558,161.139221 C55.553558,161.139221 44.85791,157.346008 45.079071,162.069427 C45.291962,166.615967 46.468323,180.994812 46.468323,180.994812 L46.468323,180.994812 Z" id="Shape-4" fill="#3B434F"></path>
            <path d="M247.813416,138.362122 C247.825256,138.362793 248.865631,137.536163 250.83017,136.920715 C251.812073,136.613678 253.032379,136.361115 254.423309,136.298828 C254.77066,136.283295 255.128174,136.279602 255.494019,136.289948 C255.859833,136.300262 256.233978,136.324615 256.614319,136.365021 C257.374847,136.445862 258.16037,136.591156 258.950806,136.817383 C262.115753,137.722351 265.344391,139.922607 267.24057,144.463959 C268.192413,146.734741 268.820343,149.591064 268.986328,153.164856 C269.027863,154.058319 269.040558,154.996613 269.022369,155.981812 C269.00412,156.96701 268.954956,157.999115 268.872833,159.0802 C268.70871,161.242279 268.412292,163.600311 267.970673,166.169769 C267.980347,166.167236 268.382568,173.934509 265.591705,182.859589 C262.968048,191.585632 256.667725,202.304779 245.035187,205.367889 C246.373047,183.203552 246.414612,160.623779 247.813416,138.362122 L247.813416,138.362122 L247.813416,138.362122 Z" id="Shape-11-copy_1" fill="#FFFFFF"></path>
            <path d="M246.482605,139.255676 C246.482605,139.255676 266.747375,133.00824 266.03421,153.736633 C266.03421,153.736633 263.017151,183.793488 261.70697,186.563599 C261.70697,186.563599 253.748444,204.063751 240.614044,204.839325 C227.777039,205.597321 240.614044,204.839325 240.614044,204.839325 L240.45462,210.480011 C240.45462,210.480011 263.539917,207.535034 267.998688,181.065399 L271.517914,157.019012 C271.517914,157.019012 274.250458,125.195984 247.744781,133.287231 C221.922913,141.169769 247.744781,133.287231 247.744781,133.287231 L246.482605,139.255676" id="Shape-3_1" fill="#3B434F"></path>
            <path d="M253.171326,181.014832 C253.171326,181.014832 254.30542,181.867584 255.279663,181.867584 C256.253906,181.867584 257.374176,181.014832 257.374176,181.014832 L259.465515,160.046295 C259.465515,160.046295 256.580017,149.719849 244.335724,155.177063 L244.046295,161.172729 C244.046295,161.172729 254.788788,157.38208 254.56665,162.102295 C254.352844,166.645752 253.171326,181.014832 253.171326,181.014832 L253.171326,181.014832 Z" id="Shape-4_1" fill="#3B434F"></path>
            <path d="M157.893341,179.333344 L159.386658,179.333344 C162.474121,183.526306 163.730225,189.969757 165.359985,195.546661 C165.865051,197.274963 165.375061,200.297974 164.933319,201.519989 C163.315552,205.995514 158.235687,205.915192 154.053345,207.919983 C152.930115,208.458435 152.094604,209.387817 150.640015,209.626678 C149.691711,208.791351 148.546722,208.627289 148.079987,207.279999 C146.927673,205.693268 148.412811,204.702393 149.573334,204.079987 C151.679565,202.950409 158.181488,201.837097 158.959991,199.813324 C159.923218,198.71759 159.282745,195.423157 158.959991,194.266663 C158.133392,191.304504 157.736633,188.831543 156.613342,186.160004 C155.867188,184.385498 154.557159,182.514496 155.333344,180.399994 C155.976532,180.12381 157.366638,179.809784 157.893341,179.333344 L157.893341,179.333344 Z" id="new_vector_shape_done" fill="#3B434F"></path>
            <path d="M98.799988,146.480011 L104.773346,146.480011 C108.072327,146.480011 110.746674,149.154358 110.746674,152.453339 C110.746674,155.752319 108.072327,158.426666 104.773346,158.426666 L98.799988,158.426666 C95.501007,158.426666 92.82666,155.752319 92.82666,152.453339 C92.82666,149.154358 95.501007,146.480011 98.799988,146.480011 L98.799988,146.480011 Z" id="Rounded-Rectangle-8" fill="#3B434F"></path>
            <path d="M196.079987,146.480011 L202.053345,146.480011 C205.352325,146.480011 208.026672,149.154358 208.026672,152.453339 C208.026672,155.752319 205.352325,158.426666 202.053345,158.426666 L196.079987,158.426666 C192.781006,158.426666 190.106659,155.752319 190.106659,152.453339 C190.106659,149.154358 192.781006,146.480011 196.079987,146.480011 L196.079987,146.480011 Z" id="Rounded-Rectangle-8-copy" fill="#3B434F"></path>
            <path d="M201.626678,174.640015 C207.5177,174.640015 212.293335,179.415649 212.293335,185.306671 C212.293335,191.197693 207.5177,195.973328 201.626678,195.973328 C195.735626,195.973328 190.960022,191.197693 190.960022,185.306671 C190.960022,179.415649 195.735626,174.640015 201.626678,174.640015 L201.626678,174.640015 Z" id="Ellipse-3" fill="#EDF1F1"></path>
            <path d="M98.373352,174.640015 C104.264374,174.640015 109.040009,179.415649 109.040009,185.306671 C109.040009,191.197693 104.264374,195.973328 98.373352,195.973328 C92.4823,195.973328 87.706696,191.197693 87.706696,185.306671 C87.706696,179.415649 92.4823,174.640015 98.373352,174.640015 L98.373352,174.640015 Z" id="Ellipse-3-copy" fill="#EDF1F1"></path>
            <path d="M57.016968,166.106659 C57.016968,166.106659 68.886597,114.110748 79.215393,99.888 C89.544189,85.665253 98.482269,82.263428 103.121399,81.828369 C107.760529,81.393341 144.293213,92.192657 194.47644,79.821716 C194.47644,79.821716 214.26358,79.032013 222.651367,98.884705 C222.651367,98.884705 240.335724,130.522369 243.142212,162.093414 L246.557343,162.093414 C246.557343,162.093414 253.794525,106.750519 250.826324,73.801849 C247.858032,40.85321 204.721863,24.639526 204.721863,24.639526 L214.113495,17.616302 C214.113495,17.616302 192.18689,10.838074 183.377228,14.606415 L190.207489,0.559998 C190.207489,0.559998 145.957397,0.648193 121.050873,20.626251 L121.904663,10.593109 C121.904663,10.593109 34.114838,24.055573 52.748047,164.100037 L57.016968,166.106659 L57.016968,166.106659 Z" id="Shape-7" fill="#3B434F"></path>
        </g>
    </g>
</svg>